<?xml version="1.0" encoding="utf-8"?>
<!-- Generator: Adobe Illustrator 21.0.0, SVG Export Plug-In . SVG Version: 6.00 Build 0)  -->
<svg version="1.1" id="图层_1" xmlns="http://www.w3.org/2000/svg" xmlns:xlink="http://www.w3.org/1999/xlink" x="0px" y="0px"
	 viewBox="0 0 90 90" style="enable-background:new 0 0 90 90;" xml:space="preserve">
<g>
	<path d="M77.3,70.8h-58c-2.1,0-3.7-1.7-3.7-3.7V14.7c0-1-0.8-1.9-1.9-1.9s-1.9,0.8-1.9,1.9V67c0,4.1,3.4,7.5,7.5,7.5h58
		c1,0,1.9-0.8,1.9-1.9S78.3,70.8,77.3,70.8z"/>
	<path d="M27.7,63.3c3.1,0,5.6-2.5,5.6-5.6c0-1.1-0.4-2.2-0.9-3.1l7.7-10.3c0.6,0.2,1.1,0.3,1.7,0.3c0.9,0,1.9-0.3,2.6-0.7l5.1,3.6
		c-0.2,0.6-0.3,1.1-0.3,1.7c0,3.1,2.5,5.6,5.6,5.6s5.6-2.5,5.6-5.6c0-1.1-0.4-2.2-0.9-3.1l9.4-12c0.3,0.1,0.6,0.1,0.9,0.1
		c3.1,0,5.6-2.5,5.6-5.6s-2.5-5.6-5.6-5.6c-3.1,0-5.6,2.5-5.6,5.6c0,1.4,0.6,2.7,1.4,3.7l-9.1,11.5c-0.6-0.2-1.1-0.3-1.7-0.3
		c-1.1,0-2.2,0.4-3.1,0.9L47,41.1c0.3-0.7,0.5-1.4,0.5-2.2c0-3.1-2.5-5.6-5.6-5.6s-5.6,2.5-5.6,5.6c0,1.1,0.4,2.2,0.9,3.1l-7.7,10.3
		c-0.7-0.2-1.2-0.3-1.8-0.3c-3.1,0-5.6,2.5-5.6,5.6C22.1,60.8,24.6,63.3,27.7,63.3z M69.8,26.8c1,0,1.9,0.8,1.9,1.9
		s-0.8,1.9-1.9,1.9s-1.9-0.8-1.9-1.9C67.9,27.7,68.8,26.8,69.8,26.8z M54.9,47.4c1,0,1.9,0.8,1.9,1.9s-0.8,1.9-1.9,1.9
		S53,50.3,53,49.3S53.8,47.4,54.9,47.4z M41.8,37.1c1,0,1.9,0.8,1.9,1.9s-0.8,1.9-1.9,1.9S39.9,40,39.9,39S40.7,37.1,41.8,37.1z
		 M27.7,55.8c1,0,1.9,0.8,1.9,1.9c0,1-0.8,1.9-1.9,1.9s-1.9-0.8-1.9-1.9C25.9,56.7,26.7,55.8,27.7,55.8z"/>
</g>
</svg>
