<?xml version="1.0" encoding="utf-8"?>
<!-- Generator: Adobe Illustrator 21.0.0, SVG Export Plug-In . SVG Version: 6.00 Build 0)  -->
<svg version="1.1" id="图层_1" xmlns="http://www.w3.org/2000/svg" xmlns:xlink="http://www.w3.org/1999/xlink" x="0px" y="0px"
	 viewBox="0 0 468 546" style="enable-background:new 0 0 468 546;" xml:space="preserve">
<style type="text/css">
	.st0{clip-path:url(#SVGID_2_);}
</style>
<g>
	<defs>
		<path id="SVGID_1_" d="M289,265.2c-3.5,0.6-7.1-0.1-10.4-2c-2.4-1.5-4.3-3.5-5.5-5.8l-0.1-0.1c-6.2-11.7-17.8-23.6-32.9-32.9
			l-36.8-22.6c-14.9-9-30.5-13.8-43.6-14.1c-0.2,0-0.4,0-0.6,0c-0.1,0-0.2,0-0.3,0c-0.3,0-0.7,0-1-0.1c-13,0-28.6,4.1-43.7,12.5
			L62,229c-9.1,5.1-16.9,11.1-23.2,17.6c8.9,2.8,19.2,4.3,30.1,4.3l73.7,0c17.5-0.1,33.2-4.2,44.5-10.8c0.2-0.1,0.4-0.2,0.5-0.3
			c0.1,0,0.2-0.1,0.2-0.1c2.1-1.2,4.6-1.8,7.2-1.8c6.8,0,12.6,4.5,14.5,10.7c0.7,2.1,0.9,4.3,0.6,6.5l0,0.1
			c-1.6,13.2,1.1,29.5,8.2,45.9l25.3,57.6c7.1,16,17.2,28.7,27.7,36.4c0.2,0.1,0.3,0.2,0.5,0.4c0.1,0.1,0.2,0.1,0.2,0.2
			c1.9,1.5,3.5,3.5,4.6,5.9c3.4,7.7-0.1,16.6-7.8,19.9c-7.6,3.4-16.6-0.1-19.9-7.8c-1.1-2.6-1.5-5.3-1.2-7.9l0-0.1
			c1.6-13.2-1.1-29.5-8.2-45.9l-25.3-57.6c-7.1-16-17.2-28.7-27.7-36.4c-0.2-0.1-0.3-0.2-0.5-0.4c-0.1-0.1-0.1-0.1-0.2-0.2
			c-11.3-6.2-26.8-10.1-43.9-10.1l-73.7,0c-17.5,0.1-33.2,4.2-44.5,10.8c-0.2,0.1-0.4,0.2-0.5,0.3c-0.1,0-0.2,0.1-0.2,0.1
			c-2.1,1.2-4.6,1.8-7.2,1.8c-2.1,0-4.1-0.4-5.9-1.2c-3.3-1.2-6.2-3.6-8-6.9c-4.1-7.3-1.4-16.5,5.9-20.6c2.5-1.4,5.1-2,7.8-1.9
			l0.1,0c13.2,0.3,29.3-3.8,44.9-12.5l52.1-29c15.2-8.6,27-19.8,33.7-31c0.1-0.2,0.2-0.4,0.3-0.5c0-0.1,0.1-0.2,0.1-0.2
			c1.3-2.1,3.1-3.8,5.4-5.1c7.3-4.1,16.5-1.4,20.6,5.9c0.1,0.2,0.2,0.4,0.3,0.6c6.3,11.6,17.7,23.5,32.9,32.8l36.8,22.6
			c14.6,8.9,29.9,13.6,42.8,14c0.7-0.1,1.3-0.1,2-0.1l0.1,0c13.2,0.3,29.3-4,44.8-12.7l51.6-28.9c9.1-5.2,16.9-11.3,23.2-17.8
			c-8.9-2.8-19.2-4.3-30.1-4.3l-71.4,0c-17.5,0.1-33.2,4.2-44.5,10.8c-0.2,0.1-0.4,0.2-0.5,0.3c-0.1,0-0.2,0.1-0.2,0.1
			c-2.1,1.2-4.6,1.8-7.2,1.8c-4.5,0-8.5-1.9-11.2-5c-1.1-1.2-2.1-2.6-2.8-4.2c-1.2-2.6-1.6-5.3-1.3-7.9l0-0.1
			c1.3-13.2-1.6-29.5-9.1-45.7l-26.6-57.7c-7.4-15.8-17.7-28.4-28.4-35.9c-0.2-0.1-0.3-0.2-0.5-0.4c-0.1,0-0.2-0.1-0.2-0.2
			c-2-1.5-3.6-3.4-4.7-5.8c-3.5-7.6-0.2-16.6,7.4-20.1c7.6-3.5,16.6-0.2,20.1,7.4c1.2,2.6,1.6,5.3,1.3,7.9l0,0.1
			c-1.3,13.2,1.6,29.5,9.1,45.7l26.6,57.7c7.4,15.8,17.7,28.4,28.4,35.9c0.2,0.1,0.3,0.2,0.5,0.4c0.1,0.1,0.2,0.1,0.2,0.2
			c0.1,0.1,0.2,0.2,0.3,0.3c11.3,6.3,26.9,10.2,44.1,10.2l71.4,0c17.5-0.1,33.2-4.2,44.5-10.8c0.2-0.1,0.4-0.2,0.5-0.3
			c0.1,0,0.2-0.1,0.2-0.1c2.1-1.2,4.6-1.8,7.2-1.8c2.8,0,5.4,0.8,7.7,2.1c2.5,1.3,4.6,3.3,6.1,5.9c4.1,7.3,1.5,16.5-5.8,20.6
			c-2.5,1.4-5.1,2-7.8,1.9l-0.1,0c-13.2-0.3-29.3,4-44.8,12.7L334,226.3c-15.2,8.6-26.9,19.9-33.5,31.2c-0.1,0.2-0.2,0.4-0.3,0.5
			c0,0.1-0.1,0.2-0.1,0.2c-1.3,2.1-3.1,3.8-5.4,5.1C292.8,264.4,290.9,265,289,265.2z"/>
	</defs>
	<clipPath id="SVGID_2_">
		<use xlink:href="#SVGID_1_"  style="overflow:visible;"/>
	</clipPath>
	<rect x="-4.8" y="-4.8" class="st0" width="455.6" height="432.3"/>
</g>
<g>
	<path d="M37.1,542.8L32.3,526H13.8L9,542.8H6.2L21.6,490h3L40,542.8H37.1z M23.3,494.9h-0.4l-8.3,28.5h16.9L23.3,494.9z"/>
	<path d="M51,542.8v-50.2H38.2V490h28.3v2.6H53.8v50.2H51z"/>
	<path d="M74.5,542.8V490h2.8v50.2h18.9v2.6H74.5z"/>
	<path d="M130.3,542.8l-4.8-16.8H107l-4.8,16.8h-2.8l15.4-52.8h3l15.4,52.8H130.3z M116.5,494.9h-0.4l-8.3,28.5h16.9L116.5,494.9z"
		/>
	<path d="M145.2,543.2c-2.4-0.2-4.4-0.4-6.1-0.7v-2.7c1.8,0.3,3.8,0.5,6.1,0.7c2.3,0.2,4.2,0.3,5.6,0.3c2.1,0,3.8-0.2,5.2-0.5
		c1.4-0.3,2.5-0.8,3.6-1.6c1-0.7,1.6-1.9,1.9-3.5s0.5-3.8,0.5-6.5c0-3.5-0.1-6-0.3-7.3s-0.8-2.2-1.7-2.8c-0.9-0.5-2.6-1-5-1.3
		l-10.1-1.5c-2.1-0.3-3.7-1-4.7-2c-1-1-1.6-2.3-1.8-3.8c-0.2-1.5-0.3-3.8-0.3-6.8c0-5,1-8.5,3-10.7c2-2.1,5.5-3.2,10.6-3.2
		c2.2,0,4.4,0.1,6.4,0.3c2.1,0.2,3.7,0.4,4.8,0.7v2.5c-1.4-0.3-3.2-0.5-5.2-0.7c-2-0.2-3.9-0.3-5.5-0.3c-2.5,0-4.5,0.2-6,0.7
		c-1.5,0.5-2.6,1.2-3.4,2.1c-0.8,0.9-1.4,2-1.6,3.4c-0.3,1.3-0.4,3.1-0.4,5.2c0,2.8,0.1,4.8,0.4,6c0.3,1.3,0.7,2.1,1.5,2.6
		c0.7,0.5,1.9,0.9,3.5,1.2l9.4,1.5c2.6,0.4,4.6,0.9,5.9,1.6c1.3,0.7,2.2,1.9,2.8,3.7c0.3,0.7,0.4,1.7,0.5,2.8c0.1,1.2,0.1,3,0.1,5.5
		c0,3.7-0.4,6.7-1.1,8.8c-0.7,2.2-2.1,3.7-4,4.7c-1.9,1-4.6,1.5-8,1.5C149.7,543.4,147.6,543.3,145.2,543.2z"/>
	<path d="M189.2,490h15c3.5,0,6.2,0.7,7.9,2.1c1.7,1.4,2.8,3.2,3.2,5.3c0.4,2.1,0.7,5,0.7,8.4c0,3.4-0.2,6.2-0.7,8.4
		c-0.5,2.2-1.6,4-3.3,5.4c-1.7,1.4-4.3,2.1-7.8,2.1H192v21h-2.8V490z M204.1,519.2c2.7,0,4.7-0.5,6-1.5c1.3-1,2.1-2.4,2.5-4.3
		c0.4-1.8,0.6-4.3,0.6-7.5s-0.2-5.7-0.5-7.5c-0.4-1.8-1.2-3.2-2.5-4.3c-1.3-1-3.3-1.5-6-1.5H192v26.6H204.1z"/>
	<path d="M249.9,542.8l-7.2-22.7c-0.6,0.1-1.4,0.1-2.4,0.1h-12.5v22.6h-2.8V490h15.7c3.5,0,6.1,0.7,7.7,2c1.7,1.4,2.7,3.1,3.1,5.1
		c0.4,2,0.7,4.7,0.7,8c0,2.6-0.1,4.8-0.4,6.6c-0.3,1.8-0.9,3.4-1.9,4.8c-1,1.4-2.5,2.4-4.5,3l7.5,23.3H249.9z M246.3,516.1
		c1.3-1,2.2-2.4,2.6-4.1c0.4-1.7,0.6-4,0.6-6.9c0-3-0.2-5.3-0.5-7c-0.4-1.7-1.2-3-2.5-4s-3.2-1.5-5.8-1.5h-12.8v25h12.4
		C243,517.6,245,517.1,246.3,516.1z"/>
	<path d="M266.8,541.5c-2-1.3-3.4-3.6-4-7.2c-0.6-3.5-1-9.5-1-18s0.3-14.4,1-18c0.6-3.5,2-5.9,4-7.2c2-1.3,5.5-1.9,10.4-1.9
		c4.9,0,8.3,0.6,10.4,1.9c2,1.3,3.4,3.7,4,7.2c0.6,3.6,1,9.5,1,17.9c0,8.4-0.3,14.4-1,17.9c-0.6,3.6-2,6-4,7.2
		c-2,1.3-5.5,1.9-10.4,1.9C272.3,543.4,268.9,542.8,266.8,541.5z M285.7,539.5c1.6-0.9,2.7-2.9,3.2-6.1c0.6-3.2,0.8-8.9,0.8-17
		c0-8.1-0.3-13.8-0.8-17c-0.6-3.2-1.6-5.2-3.2-6.1c-1.6-0.9-4.4-1.3-8.5-1.3c-4.1,0-6.9,0.4-8.5,1.3c-1.6,0.8-2.7,2.9-3.2,6.1
		c-0.6,3.2-0.8,8.9-0.8,17c0,8.1,0.3,13.8,0.8,17c0.6,3.2,1.6,5.3,3.2,6.1c1.6,0.8,4.4,1.3,8.5,1.3
		C281.3,540.8,284.1,540.4,285.7,539.5z"/>
	<path d="M310.9,542.8v-50.2h-12.7V490h28.3v2.6h-12.7v50.2H310.9z"/>
	<path d="M337,541.5c-2-1.3-3.4-3.6-4-7.2c-0.6-3.5-1-9.5-1-18s0.3-14.4,1-18c0.6-3.5,2-5.9,4-7.2c2-1.3,5.5-1.9,10.4-1.9
		c4.9,0,8.3,0.6,10.4,1.9c2,1.3,3.4,3.7,4,7.2c0.6,3.6,1,9.5,1,17.9c0,8.4-0.3,14.4-1,17.9c-0.6,3.6-2,6-4,7.2
		c-2,1.3-5.5,1.9-10.4,1.9C342.5,543.4,339.1,542.8,337,541.5z M355.9,539.5c1.6-0.9,2.7-2.9,3.2-6.1c0.6-3.2,0.8-8.9,0.8-17
		c0-8.1-0.3-13.8-0.8-17c-0.6-3.2-1.6-5.2-3.2-6.1c-1.6-0.9-4.4-1.3-8.5-1.3c-4.1,0-6.9,0.4-8.5,1.3c-1.6,0.8-2.7,2.9-3.2,6.1
		c-0.6,3.2-0.8,8.9-0.8,17c0,8.1,0.3,13.8,0.8,17c0.6,3.2,1.6,5.3,3.2,6.1c1.6,0.8,4.4,1.3,8.5,1.3
		C351.5,540.8,354.3,540.4,355.9,539.5z"/>
	<path d="M387.4,543.4c-4.5,0-7.8-0.6-9.8-1.8c-2-1.2-3.4-3.7-4.1-7.3c-0.7-3.6-1.1-9.6-1.1-17.9c0-8.2,0.4-14.1,1.1-17.8
		c0.7-3.7,2.1-6.1,4.1-7.4c2-1.3,5.3-1.9,9.8-1.9c1.3,0,2.8,0.1,4.3,0.3c1.5,0.2,2.8,0.4,3.8,0.7v2.5c-2.4-0.5-4.9-0.8-7.4-0.8
		c-4.1,0-7,0.5-8.7,1.6c-1.7,1-2.8,3.2-3.3,6.4c-0.5,3.2-0.8,8.7-0.8,16.5c0,7.8,0.3,13.3,0.8,16.5c0.5,3.2,1.7,5.3,3.3,6.4
		c1.7,1,4.6,1.6,8.7,1.6c1.2,0,2.6-0.1,4-0.2c1.4-0.2,2.6-0.3,3.6-0.5v2.6C393.2,543.2,390.4,543.4,387.4,543.4z"/>
	<path d="M408.3,541.5c-2-1.3-3.4-3.6-4-7.2c-0.6-3.5-1-9.5-1-18s0.3-14.4,1-18c0.6-3.5,2-5.9,4-7.2c2-1.3,5.5-1.9,10.4-1.9
		c4.9,0,8.3,0.6,10.4,1.9c2,1.3,3.4,3.7,4,7.2c0.6,3.6,1,9.5,1,17.9c0,8.4-0.3,14.4-1,17.9c-0.6,3.6-2,6-4,7.2
		c-2,1.3-5.5,1.9-10.4,1.9C413.8,543.4,410.4,542.8,408.3,541.5z M427.2,539.5c1.6-0.9,2.7-2.9,3.2-6.1c0.6-3.2,0.8-8.9,0.8-17
		c0-8.1-0.3-13.8-0.8-17c-0.6-3.2-1.6-5.2-3.2-6.1c-1.6-0.9-4.4-1.3-8.5-1.3c-4.1,0-6.9,0.4-8.5,1.3c-1.6,0.8-2.7,2.9-3.2,6.1
		c-0.6,3.2-0.8,8.9-0.8,17c0,8.1,0.3,13.8,0.8,17c0.6,3.2,1.6,5.3,3.2,6.1c1.6,0.8,4.4,1.3,8.5,1.3
		C422.8,540.8,425.6,540.4,427.2,539.5z"/>
	<path d="M445.1,542.8V490h2.8v50.2h18.9v2.6H445.1z"/>
</g>
<g>
</g>
<g>
</g>
<g>
</g>
<g>
</g>
<g>
</g>
<g>
</g>
<g>
</g>
<g>
</g>
<g>
</g>
<g>
</g>
<g>
</g>
<g>
</g>
<g>
</g>
<g>
</g>
<g>
</g>
</svg>
