<?xml version="1.0" encoding="utf-8"?>
<!-- Generator: Adobe Illustrator 21.0.0, SVG Export Plug-In . SVG Version: 6.00 Build 0)  -->
<svg version="1.1" id="图层_1" xmlns="http://www.w3.org/2000/svg" xmlns:xlink="http://www.w3.org/1999/xlink" x="0px" y="0px"
	 viewBox="0 0 136 156" style="enable-background:new 0 0 136 156;" xml:space="preserve">
<style type="text/css">
	.st0{fill-rule:evenodd;clip-rule:evenodd;}
</style>
<path class="st0" d="M135.1,112.1c-2.1-3.9-3.4-9.7-3.5-16.1c0-0.2,0-0.4,0-0.5v0c0-0.6,0-1.2,0-1.7V61.4c0-6.6,1.4-12.6,3.5-16.5
	c0.4-0.7,0.6-1.4,0.6-2.2c0-0.4-0.1-0.9-0.2-1.3c-0.3-1.2-1-2.3-2.2-3c-0.7-0.4-1.4-0.6-2.2-0.6c-4.4-0.2-10.1-1.9-15.7-5.1
	c-0.2-0.1-0.3-0.2-0.5-0.3l0,0c-0.5-0.3-1-0.6-1.5-0.9l-29.1-17C78.5,11.2,74.1,7,71.7,3.2c-0.4-0.6-0.9-1.2-1.6-1.6
	c-0.9-0.6-2-0.7-3-0.6c-0.6,0.1-1.2,0.3-1.8,0.6c-0.7,0.4-1.2,1-1.6,1.6c-2.3,3.8-6.6,7.9-12.1,11.2c-0.2,0.1-0.3,0.2-0.5,0.3l0,0
	c-0.5,0.3-1,0.6-1.5,0.9L21,32.4c-5.7,3.3-11.5,5.2-16,5.4c-0.7,0-1.5,0.2-2.2,0.6c-0.5,0.3-1,0.7-1.3,1.2c-0.7,0.8-1.2,1.9-1.2,3.1
	c0,0.8,0.2,1.6,0.6,2.2c2.1,3.9,3.4,9.7,3.5,16.1c0,0.2,0,0.4,0,0.5v0c0,0.6,0,1.2,0,1.7v32.2c0,6.6-1.4,12.6-3.5,16.5
	c-0.4,0.7-0.6,1.4-0.6,2.2c0,1,0.3,2,0.9,2.8c0.4,0.6,0.9,1.2,1.6,1.6c0.7,0.4,1.4,0.6,2.2,0.6c4.4,0.2,10.1,1.9,15.7,5.1
	c0.2,0.1,0.3,0.2,0.5,0.3l0,0c0.5,0.3,1,0.6,1.5,0.9l28.2,16.4c5.7,3.4,10.2,7.5,12.5,11.3c0.4,0.6,0.9,1.2,1.6,1.6
	c0.5,0.3,1,0.5,1.5,0.5c1.1,0.2,2.3,0.1,3.3-0.5c0.7-0.4,1.2-0.9,1.6-1.6c2.3-3.7,6.7-7.8,12.3-11.1c0.2-0.1,0.3-0.2,0.5-0.3l0,0
	c0.5-0.3,1-0.6,1.5-0.9l29.2-16.7c5.8-3.3,11.6-5,16.1-5.2c0.7,0,1.5-0.2,2.2-0.6c1.2-0.7,1.9-1.7,2.2-2.9c0.1-0.4,0.2-0.9,0.2-1.4
	C135.6,113.5,135.4,112.7,135.1,112.1z M114.7,123.2c-0.2,0.1-0.3,0.2-0.5,0.3l0,0c-0.5,0.3-1,0.6-1.5,0.9l-29.2,16.7
	c-5.6,3.2-11.3,4.9-15.7,5.1c-0.1,0-0.2,0-0.2,0c-4.4-0.2-10.1-1.9-15.7-5.1c-0.2-0.1-0.3-0.2-0.5-0.3l0,0c-0.5-0.3-1-0.6-1.5-0.9
	l-28.2-16.4c-5.7-3.4-10.2-7.5-12.5-11.3c-0.1-0.1-0.1-0.2-0.2-0.3c-2-3.9-3.4-9.6-3.4-16c0-0.2,0-0.4,0-0.5v0c0-0.6,0-1.2,0-1.7
	V61.4c0-6.4,1.3-12.2,3.3-16.2C8.9,45.1,9,45,9.1,44.8c2.3-3.8,6.6-7.9,12.1-11.2c0.2-0.1,0.3-0.2,0.5-0.3l0,0
	c0.5-0.3,1-0.6,1.5-0.9l28.5-16.8c5.7-3.3,11.5-5.2,16-5.4c0,0,0,0,0.1,0c4.4,0.2,9.9,1.9,15.5,5.1c0.2,0.1,0.3,0.2,0.5,0.3l0,0
	c0.5,0.3,1,0.6,1.5,0.9l29.1,17c5.5,3.2,9.8,7.2,12.2,10.9c0.1,0.2,0.1,0.3,0.2,0.5c2.1,3.9,3.4,9.7,3.5,16.1c0,0.2,0,0.4,0,0.5v0
	c0,0.6,0,1.2,0,1.7v32.2c0,6.6-1.4,12.6-3.5,16.5c-0.1,0.2-0.2,0.4-0.3,0.5C124.3,116.2,120.1,120,114.7,123.2z"/>
<g>
</g>
<g>
</g>
<g>
</g>
<g>
</g>
<g>
</g>
<g>
</g>
<g>
</g>
<g>
</g>
<g>
</g>
<g>
</g>
<g>
</g>
<g>
</g>
<g>
</g>
<g>
</g>
<g>
</g>
</svg>
