<?xml version="1.0" encoding="utf-8"?>
<!-- Generator: Adobe Illustrator 21.0.0, SVG Export Plug-In . SVG Version: 6.00 Build 0)  -->
<svg version="1.1" id="图层_1" xmlns="http://www.w3.org/2000/svg" xmlns:xlink="http://www.w3.org/1999/xlink" x="0px" y="0px"
	 viewBox="0 0 90 90" style="enable-background:new 0 0 90 90;" xml:space="preserve">
<g>
	<path d="M211.8-101.4c-0.4,0-0.8-0.1-1.2-0.4c-0.6-0.4-0.9-1.2-0.8-2l4-23.6l-17-16.6c-0.5-0.5-0.7-1.3-0.5-2.1
		c0.2-0.7,0.9-1.3,1.6-1.4l23.7-3.4l10.6-21.5c0.3-0.7,1-1.1,1.8-1.1c0.8,0,1.5,0.4,1.8,1.1l10.6,21.5l23.7,3.4
		c0.8,0.1,1.4,0.6,1.6,1.4c0.2,0.7,0,1.5-0.5,2.1L254-127.3l4,23.6c0.1,0.8-0.2,1.5-0.8,2c-0.6,0.4-1.4,0.5-2.1,0.2l-21.2-11.3
		l-21.1,11.2C212.5-101.5,212.1-101.4,211.8-101.4z M202.5-144.1l15,14.6c0.5,0.5,0.7,1.1,0.6,1.8l-3.5,20.6l18.5-9.7
		c0.6-0.3,1.3-0.3,1.9,0l18.5,9.7l-3.5-20.6c-0.1-0.6,0.1-1.3,0.6-1.8l15-14.6l-20.7-3c-0.7-0.1-1.2-0.5-1.5-1.1l-9.3-18.8
		l-9.4,18.8c-0.3,0.6-0.9,1-1.5,1.1L202.5-144.1z"/>
</g>
<g>
	<path d="M192-62h-4c-4.4,0-8,3.6-8,8v4c0,4.4,3.6,8,8,8h4c4.4,0,8-3.6,8-8v-4C200-58.4,196.4-62,192-62z M196-50c0,2.2-1.8,4-4,4
		h-4c-2.2,0-4-1.8-4-4v-4c0-2.2,1.8-4,4-4h4c2.2,0,4,1.8,4,4V-50z"/>
	<path d="M248-88h-4c-4.4,0-8,3.6-8,8v4c0,4.4,3.6,8,8,8h4c4.4,0,8-3.6,8-8v-4C256-84.4,252.4-88,248-88z M252-76c0,2.2-1.8,4-4,4
		h-4c-2.2,0-4-1.8-4-4v-4c0-2.2,1.8-4,4-4h4c2.2,0,4,1.8,4,4V-76z"/>
	<path d="M248-36h-4c-4.4,0-8,3.6-8,8v4c0,4.4,3.6,8,8,8h4c4.4,0,8-3.6,8-8v-4C256-32.4,252.4-36,248-36z M252-24c0,2.2-1.8,4-4,4
		h-4c-2.2,0-4-1.8-4-4v-4c0-2.2,1.8-4,4-4h4c2.2,0,4,1.8,4,4V-24z"/>
	<path d="M248-62h-4c-4.4,0-8,3.6-8,8v4c0,4.4,3.6,8,8,8h4c4.4,0,8-3.6,8-8v-4C256-58.4,252.4-62,248-62z M252-50c0,2.2-1.8,4-4,4
		h-4c-2.2,0-4-1.8-4-4v-4c0-2.2,1.8-4,4-4h4c2.2,0,4,1.8,4,4V-50z"/>
	<path d="M223.6-69.6c0.4,0.4,0.9,0.6,1.4,0.6s1-0.2,1.4-0.6l7-7c0.8-0.8,0.8-2,0-2.8l-7-7c-0.8-0.8-2-0.8-2.8,0
		c-0.8,0.8-0.8,2,0,2.8l3.6,3.6H213c-1.1,0-2,0.9-2,2v24h-7c-1.1,0-2,0.9-2,2s0.9,2,2,2h7v24c0,1.1,0.9,2,2,2h14.2l-3.6,3.6
		c-0.8,0.8-0.8,2,0,2.8c0.4,0.4,0.9,0.6,1.4,0.6s1-0.2,1.4-0.6l7-7c0.8-0.8,0.8-2,0-2.8l-7-7c-0.8-0.8-2-0.8-2.8,0
		c-0.8,0.8-0.8,2,0,2.8l3.6,3.6H215v-22h12.2l-3.6,3.6c-0.8,0.8-0.8,2,0,2.8c0.4,0.4,0.9,0.6,1.4,0.6s1-0.2,1.4-0.6l7-7
		c0.8-0.8,0.8-2,0-2.8l-7-7c-0.8-0.8-2-0.8-2.8,0c-0.8,0.8-0.8,2,0,2.8l3.6,3.6H215v-22h12.2l-3.6,3.6
		C222.8-71.6,222.8-70.4,223.6-69.6z"/>
</g>
<g>
	<path d="M66.8,16.2H56.4c-3.8,0-7,3.1-7,7v8.7c0,3.8,3.1,7,7,7h10.5c3.8,0,7-3.1,7-7v-8.7C73.8,19.3,70.7,16.2,66.8,16.2z
		 M70.3,31.9c0,1.9-1.6,3.5-3.5,3.5H56.4c-1.9,0-3.5-1.6-3.5-3.5v-8.7c0-1.9,1.6-3.5,3.5-3.5h10.5c1.9,0,3.5,1.6,3.5,3.5V31.9z"/>
	<path d="M33.6,51.1H23.2c-3.8,0-7,3.1-7,7v8.7c0,3.8,3.1,7,7,7h10.5c3.8,0,7-3.1,7-7v-8.7C40.6,54.3,37.5,51.1,33.6,51.1z
		 M37.1,66.8c0,1.9-1.6,3.5-3.5,3.5H23.2c-1.9,0-3.5-1.6-3.5-3.5v-8.7c0-1.9,1.6-3.5,3.5-3.5h10.5c1.9,0,3.5,1.6,3.5,3.5V66.8z"/>
	<path d="M17.9,47.6c1,0,1.7-0.8,1.7-1.7v-9.6c0-5.8,4.7-10.5,10.5-10.5h9.8l-3.1,3.1c-0.7,0.7-0.7,1.7,0,2.4
		c0.3,0.3,0.8,0.5,1.2,0.5c0.4,0,0.9-0.2,1.2-0.5l6.1-6.1c0.7-0.7,0.7-1.7,0-2.4l-6.1-6.1c-0.7-0.7-1.7-0.7-2.4,0
		c-0.7,0.7-0.7,1.7,0,2.4l3.1,3.1h-9.8c-7.7,0-14,6.3-14,14v9.6C16.2,46.8,17,47.6,17.9,47.6z"/>
	<path d="M72.1,42.4c-1,0-1.7,0.8-1.7,1.7v9.6c0,5.8-4.7,10.5-10.5,10.5h-9.8l3.1-3.1c0.7-0.7,0.7-1.7,0-2.4c-0.7-0.7-1.7-0.7-2.4,0
		l-6.1,6.1c-0.7,0.7-0.7,1.7,0,2.4l6.1,6.1c0.3,0.3,0.8,0.5,1.2,0.5c0.4,0,0.9-0.2,1.2-0.5c0.7-0.7,0.7-1.7,0-2.4l-3.1-3.1h9.8
		c7.7,0,14-6.3,14-14v-9.6C73.8,43.2,73,42.4,72.1,42.4z"/>
</g>
</svg>
