<?xml version="1.0" encoding="utf-8"?>
<!-- Generator: Adobe Illustrator 21.0.0, SVG Export Plug-In . SVG Version: 6.00 Build 0)  -->
<svg version="1.1" id="图层_1" xmlns="http://www.w3.org/2000/svg" xmlns:xlink="http://www.w3.org/1999/xlink" x="0px" y="0px"
	 viewBox="0 0 225 44" style="enable-background:new 0 0 225 44;" xml:space="preserve">
<style type="text/css">
	.st0{clip-path:url(#SVGID_7_);}
</style>
<g>
	<g>
		<path id="SVGID_1_" d="M29.2,26.8c-0.3,0.1-0.7,0-1-0.2c-0.2-0.1-0.4-0.4-0.6-0.6l0,0c-0.6-1.2-1.8-2.4-3.3-3.3l-3.7-2.3
			C19,19.5,17.4,19,16.1,19c0,0,0,0-0.1,0l0,0h-0.1c-1.3,0-2.9,0.4-4.4,1.3l-5.3,2.9c-0.9,0.5-1.7,1.1-2.3,1.8
			c0.9,0.3,1.9,0.4,3,0.4h7.4c1.8,0,3.4-0.4,4.5-1.1c0,0,0,0,0.1,0l0,0c0.2-0.1,0.5-0.2,0.7-0.2c0.7,0,1.3,0.5,1.5,1.1
			c0.1,0.2,0.1,0.4,0.1,0.7l0,0c-0.2,1.3,0.1,3,0.8,4.6l2.6,5.8c0.7,1.6,1.7,2.9,2.8,3.7c0,0,0,0,0.1,0l0,0c0.2,0.2,0.4,0.4,0.5,0.6
			c0.3,0.8,0,1.7-0.8,2s-1.7,0-2-0.8C25,41.6,25,41.3,25,41l0,0c0.2-1.3-0.1-3-0.8-4.6l-2.6-5.8c-0.7-1.6-1.7-2.9-2.8-3.7
			c0,0,0,0-0.1,0l0,0c-1.1-0.6-2.7-1-4.4-1H6.9c-1.8,0-3.4,0.4-4.5,1.1c0,0,0,0-0.1,0l0,0c-0.2,0.1-0.5,0.2-0.7,0.2s-0.4,0-0.6-0.1
			c-0.3-0.1-0.6-0.4-0.8-0.7c-0.4-0.7-0.1-1.7,0.6-2.1C1,24.1,1.3,24,1.5,24l0,0c1.3,0,3-0.4,4.5-1.3l5.3-2.9c1.5-0.9,2.7-2,3.4-3.1
			c0,0,0,0,0-0.1l0,0c0.1-0.2,0.3-0.4,0.5-0.5c0.7-0.4,1.7-0.1,2.1,0.6c0,0,0,0,0,0.1c0.6,1.2,1.8,2.4,3.3,3.3l3.7,2.3
			c1.5,0.9,3,1.4,4.3,1.4c0.1,0,0.1,0,0.2,0l0,0c1.3,0,3-0.4,4.5-1.3l5.2-2.9c0.9-0.5,1.7-1.1,2.3-1.8c-0.9-0.3-1.9-0.4-3-0.4h-7.2
			c-1.8,0-3.4,0.4-4.5,1.1c0,0,0,0-0.1,0l0,0c-0.2,0.1-0.5,0.2-0.7,0.2c-0.5,0-0.9-0.2-1.1-0.5c-0.1-0.1-0.2-0.3-0.3-0.4
			c0.1-0.4,0.1-0.6,0.1-0.9l0,0c0.1-1.3-0.2-3-0.9-4.6l-2.7-5.8c-0.7-1.6-1.8-2.9-2.9-3.6c0,0,0,0-0.1,0l0,0
			c-0.2-0.1-0.4-0.3-0.5-0.6c-0.4-0.8,0-1.7,0.8-2c0.8-0.4,1.7,0,2,0.7c0.1,0.3,0.2,0.5,0.1,0.8l0,0c-0.1,1.3,0.2,3,0.9,4.6l2.7,5.8
			c0.7,1.6,1.8,2.9,2.9,3.6c0,0,0,0,0.1,0l0,0l0,0c1.1,0.6,2.7,1,4.5,1h7.2c1.8,0,3.4-0.4,4.5-1.1c0,0,0,0,0.1,0l0,0
			c0.2-0.1,0.5-0.2,0.7-0.2c0.3,0,0.5,0.1,0.8,0.2c0.2,0.1,0.5,0.3,0.6,0.6c0.4,0.7,0.2,1.7-0.6,2.1c-0.2,0.1-0.5,0.2-0.8,0.2l0,0
			c-1.3,0-3,0.4-4.5,1.3l-5.2,2.9c-1.5,0.9-2.7,2-3.4,3.2c0,0,0,0,0,0.1l0,0c-0.1,0.2-0.3,0.4-0.5,0.5
			C29.6,26.7,29.4,26.8,29.2,26.8z"/>
	</g>
	<g>
		<g>
			<path id="SVGID_2_" d="M29.2,26.8c-0.3,0.1-0.7,0-1-0.2c-0.2-0.1-0.4-0.4-0.6-0.6l0,0c-0.6-1.2-1.8-2.4-3.3-3.3l-3.7-2.3
				C19,19.5,17.4,19,16.1,19c0,0,0,0-0.1,0l0,0h-0.1c-1.3,0-2.9,0.4-4.4,1.3l-5.3,2.9c-0.9,0.5-1.7,1.1-2.3,1.8
				c0.9,0.3,1.9,0.4,3,0.4h7.4c1.8,0,3.4-0.4,4.5-1.1c0,0,0,0,0.1,0l0,0c0.2-0.1,0.5-0.2,0.7-0.2c0.7,0,1.3,0.5,1.5,1.1
				c0.1,0.2,0.1,0.4,0.1,0.7l0,0c-0.2,1.3,0.1,3,0.8,4.6l2.6,5.8c0.7,1.6,1.7,2.9,2.8,3.7c0,0,0,0,0.1,0l0,0
				c0.2,0.2,0.4,0.4,0.5,0.6c0.3,0.8,0,1.7-0.8,2s-1.7,0-2-0.8C25,41.6,25,41.3,25,41l0,0c0.2-1.3-0.1-3-0.8-4.6l-2.6-5.8
				c-0.7-1.6-1.7-2.9-2.8-3.7c0,0,0,0-0.1,0l0,0c-1.1-0.6-2.7-1-4.4-1H6.9c-1.8,0-3.4,0.4-4.5,1.1c0,0,0,0-0.1,0l0,0
				c-0.2,0.1-0.5,0.2-0.7,0.2s-0.4,0-0.6-0.1c-0.3-0.1-0.6-0.4-0.8-0.7c-0.4-0.7-0.1-1.7,0.6-2.1C1,24.1,1.3,24,1.5,24l0,0
				c1.3,0,3-0.4,4.5-1.3l5.3-2.9c1.5-0.9,2.7-2,3.4-3.1c0,0,0,0,0-0.1l0,0c0.1-0.2,0.3-0.4,0.5-0.5c0.7-0.4,1.7-0.1,2.1,0.6
				c0,0,0,0,0,0.1c0.6,1.2,1.8,2.4,3.3,3.3l3.7,2.3c1.5,0.9,3,1.4,4.3,1.4c0.1,0,0.1,0,0.2,0l0,0c1.3,0,3-0.4,4.5-1.3l5.2-2.9
				c0.9-0.5,1.7-1.1,2.3-1.8c-0.9-0.3-1.9-0.4-3-0.4h-7.2c-1.8,0-3.4,0.4-4.5,1.1c0,0,0,0-0.1,0l0,0c-0.2,0.1-0.5,0.2-0.7,0.2
				c-0.5,0-0.9-0.2-1.1-0.5c-0.1-0.1-0.2-0.3-0.3-0.4c0.1-0.4,0.1-0.6,0.1-0.9l0,0c0.1-1.3-0.2-3-0.9-4.6l-2.7-5.8
				c-0.7-1.6-1.8-2.9-2.9-3.6c0,0,0,0-0.1,0l0,0c-0.2-0.1-0.4-0.3-0.5-0.6c-0.4-0.8,0-1.7,0.8-2c0.8-0.4,1.7,0,2,0.7
				c0.1,0.3,0.2,0.5,0.1,0.8l0,0c-0.1,1.3,0.2,3,0.9,4.6l2.7,5.8c0.7,1.6,1.8,2.9,2.9,3.6c0,0,0,0,0.1,0l0,0l0,0
				c1.1,0.6,2.7,1,4.5,1h7.2c1.8,0,3.4-0.4,4.5-1.1c0,0,0,0,0.1,0l0,0c0.2-0.1,0.5-0.2,0.7-0.2c0.3,0,0.5,0.1,0.8,0.2
				c0.2,0.1,0.5,0.3,0.6,0.6c0.4,0.7,0.2,1.7-0.6,2.1c-0.2,0.1-0.5,0.2-0.8,0.2l0,0c-1.3,0-3,0.4-4.5,1.3l-5.2,2.9
				c-1.5,0.9-2.7,2-3.4,3.2c0,0,0,0,0,0.1l0,0c-0.1,0.2-0.3,0.4-0.5,0.5C29.6,26.7,29.4,26.8,29.2,26.8z"/>
		</g>
		<g>
			<g>
				<path id="SVGID_3_" d="M29.2,26.8c-0.3,0.1-0.7,0-1-0.2c-0.2-0.1-0.4-0.4-0.6-0.6l0,0c-0.6-1.2-1.8-2.4-3.3-3.3l-3.7-2.3
					C19,19.5,17.4,19,16.1,19c0,0,0,0-0.1,0l0,0h-0.1c-1.3,0-2.9,0.4-4.4,1.3l-5.3,2.9c-0.9,0.5-1.7,1.1-2.3,1.8
					c0.9,0.3,1.9,0.4,3,0.4h7.4c1.8,0,3.4-0.4,4.5-1.1c0,0,0,0,0.1,0l0,0c0.2-0.1,0.5-0.2,0.7-0.2c0.7,0,1.3,0.5,1.5,1.1
					c0.1,0.2,0.1,0.4,0.1,0.7l0,0c-0.2,1.3,0.1,3,0.8,4.6l2.6,5.8c0.7,1.6,1.7,2.9,2.8,3.7c0,0,0,0,0.1,0l0,0
					c0.2,0.2,0.4,0.4,0.5,0.6c0.3,0.8,0,1.7-0.8,2s-1.7,0-2-0.8C25,41.6,25,41.3,25,41l0,0c0.2-1.3-0.1-3-0.8-4.6l-2.6-5.8
					c-0.7-1.6-1.7-2.9-2.8-3.7c0,0,0,0-0.1,0l0,0c-1.1-0.6-2.7-1-4.4-1H6.9c-1.8,0-3.4,0.4-4.5,1.1c0,0,0,0-0.1,0l0,0
					c-0.2,0.1-0.5,0.2-0.7,0.2s-0.4,0-0.6-0.1c-0.3-0.1-0.6-0.4-0.8-0.7c-0.4-0.7-0.1-1.7,0.6-2.1C1,24.1,1.3,24,1.5,24l0,0
					c1.3,0,3-0.4,4.5-1.3l5.3-2.9c1.5-0.9,2.7-2,3.4-3.1c0,0,0,0,0-0.1l0,0c0.1-0.2,0.3-0.4,0.5-0.5c0.7-0.4,1.7-0.1,2.1,0.6
					c0,0,0,0,0,0.1c0.6,1.2,1.8,2.4,3.3,3.3l3.7,2.3c1.5,0.9,3,1.4,4.3,1.4c0.1,0,0.1,0,0.2,0l0,0c1.3,0,3-0.4,4.5-1.3l5.2-2.9
					c0.9-0.5,1.7-1.1,2.3-1.8c-0.9-0.3-1.9-0.4-3-0.4h-7.2c-1.8,0-3.4,0.4-4.5,1.1c0,0,0,0-0.1,0l0,0c-0.2,0.1-0.5,0.2-0.7,0.2
					c-0.5,0-0.9-0.2-1.1-0.5c-0.1-0.1-0.2-0.3-0.3-0.4c0.1-0.4,0.1-0.6,0.1-0.9l0,0c0.1-1.3-0.2-3-0.9-4.6l-2.7-5.8
					c-0.7-1.6-1.8-2.9-2.9-3.6c0,0,0,0-0.1,0l0,0c-0.2-0.1-0.4-0.3-0.5-0.6c-0.4-0.8,0-1.7,0.8-2c0.8-0.4,1.7,0,2,0.7
					c0.1,0.3,0.2,0.5,0.1,0.8l0,0c-0.1,1.3,0.2,3,0.9,4.6l2.7,5.8c0.7,1.6,1.8,2.9,2.9,3.6c0,0,0,0,0.1,0l0,0l0,0
					c1.1,0.6,2.7,1,4.5,1h7.2c1.8,0,3.4-0.4,4.5-1.1c0,0,0,0,0.1,0l0,0c0.2-0.1,0.5-0.2,0.7-0.2c0.3,0,0.5,0.1,0.8,0.2
					c0.2,0.1,0.5,0.3,0.6,0.6c0.4,0.7,0.2,1.7-0.6,2.1c-0.2,0.1-0.5,0.2-0.8,0.2l0,0c-1.3,0-3,0.4-4.5,1.3l-5.2,2.9
					c-1.5,0.9-2.7,2-3.4,3.2c0,0,0,0,0,0.1l0,0c-0.1,0.2-0.3,0.4-0.5,0.5C29.6,26.7,29.4,26.8,29.2,26.8z"/>
			</g>
			<g>
				<g>
					<path id="SVGID_4_" d="M29.2,26.8c-0.3,0.1-0.7,0-1-0.2c-0.2-0.1-0.4-0.4-0.6-0.6l0,0c-0.6-1.2-1.8-2.4-3.3-3.3l-3.7-2.3
						C19,19.5,17.4,19,16.1,19c0,0,0,0-0.1,0l0,0h-0.1c-1.3,0-2.9,0.4-4.4,1.3l-5.3,2.9c-0.9,0.5-1.7,1.1-2.3,1.8
						c0.9,0.3,1.9,0.4,3,0.4h7.4c1.8,0,3.4-0.4,4.5-1.1c0,0,0,0,0.1,0l0,0c0.2-0.1,0.5-0.2,0.7-0.2c0.7,0,1.3,0.5,1.5,1.1
						c0.1,0.2,0.1,0.4,0.1,0.7l0,0c-0.2,1.3,0.1,3,0.8,4.6l2.6,5.8c0.7,1.6,1.7,2.9,2.8,3.7c0,0,0,0,0.1,0l0,0
						c0.2,0.2,0.4,0.4,0.5,0.6c0.3,0.8,0,1.7-0.8,2s-1.7,0-2-0.8C25,41.6,25,41.3,25,41l0,0c0.2-1.3-0.1-3-0.8-4.6l-2.6-5.8
						c-0.7-1.6-1.7-2.9-2.8-3.7c0,0,0,0-0.1,0l0,0c-1.1-0.6-2.7-1-4.4-1H6.9c-1.8,0-3.4,0.4-4.5,1.1c0,0,0,0-0.1,0l0,0
						c-0.2,0.1-0.5,0.2-0.7,0.2s-0.4,0-0.6-0.1c-0.3-0.1-0.6-0.4-0.8-0.7c-0.4-0.7-0.1-1.7,0.6-2.1C1,24.1,1.3,24,1.5,24l0,0
						c1.3,0,3-0.4,4.5-1.3l5.3-2.9c1.5-0.9,2.7-2,3.4-3.1c0,0,0,0,0-0.1l0,0c0.1-0.2,0.3-0.4,0.5-0.5c0.7-0.4,1.7-0.1,2.1,0.6
						c0,0,0,0,0,0.1c0.6,1.2,1.8,2.4,3.3,3.3l3.7,2.3c1.5,0.9,3,1.4,4.3,1.4c0.1,0,0.1,0,0.2,0l0,0c1.3,0,3-0.4,4.5-1.3l5.2-2.9
						c0.9-0.5,1.7-1.1,2.3-1.8c-0.9-0.3-1.9-0.4-3-0.4h-7.2c-1.8,0-3.4,0.4-4.5,1.1c0,0,0,0-0.1,0l0,0c-0.2,0.1-0.5,0.2-0.7,0.2
						c-0.5,0-0.9-0.2-1.1-0.5c-0.1-0.1-0.2-0.3-0.3-0.4c0.1-0.4,0.1-0.6,0.1-0.9l0,0c0.1-1.3-0.2-3-0.9-4.6l-2.7-5.8
						c-0.7-1.6-1.8-2.9-2.9-3.6c0,0,0,0-0.1,0l0,0c-0.2-0.1-0.4-0.3-0.5-0.6c-0.4-0.8,0-1.7,0.8-2c0.8-0.4,1.7,0,2,0.7
						c0.1,0.3,0.2,0.5,0.1,0.8l0,0c-0.1,1.3,0.2,3,0.9,4.6l2.7,5.8c0.7,1.6,1.8,2.9,2.9,3.6c0,0,0,0,0.1,0l0,0l0,0
						c1.1,0.6,2.7,1,4.5,1h7.2c1.8,0,3.4-0.4,4.5-1.1c0,0,0,0,0.1,0l0,0c0.2-0.1,0.5-0.2,0.7-0.2c0.3,0,0.5,0.1,0.8,0.2
						c0.2,0.1,0.5,0.3,0.6,0.6c0.4,0.7,0.2,1.7-0.6,2.1c-0.2,0.1-0.5,0.2-0.8,0.2l0,0c-1.3,0-3,0.4-4.5,1.3l-5.2,2.9
						c-1.5,0.9-2.7,2-3.4,3.2c0,0,0,0,0,0.1l0,0c-0.1,0.2-0.3,0.4-0.5,0.5C29.6,26.7,29.4,26.8,29.2,26.8z"/>
				</g>
				<g>
					<g>
						<path id="SVGID_5_" d="M29.2,26.8c-0.3,0.1-0.7,0-1-0.2c-0.2-0.1-0.4-0.4-0.6-0.6l0,0c-0.6-1.2-1.8-2.4-3.3-3.3l-3.7-2.3
							C19,19.5,17.4,19,16.1,19c0,0,0,0-0.1,0l0,0h-0.1c-1.3,0-2.9,0.4-4.4,1.3l-5.3,2.9c-0.9,0.5-1.7,1.1-2.3,1.8
							c0.9,0.3,1.9,0.4,3,0.4h7.4c1.8,0,3.4-0.4,4.5-1.1c0,0,0,0,0.1,0l0,0c0.2-0.1,0.5-0.2,0.7-0.2c0.7,0,1.3,0.5,1.5,1.1
							c0.1,0.2,0.1,0.4,0.1,0.7l0,0c-0.2,1.3,0.1,3,0.8,4.6l2.6,5.8c0.7,1.6,1.7,2.9,2.8,3.7c0,0,0,0,0.1,0l0,0
							c0.2,0.2,0.4,0.4,0.5,0.6c0.3,0.8,0,1.7-0.8,2s-1.7,0-2-0.8C25,41.6,25,41.3,25,41l0,0c0.2-1.3-0.1-3-0.8-4.6l-2.6-5.8
							c-0.7-1.6-1.7-2.9-2.8-3.7c0,0,0,0-0.1,0l0,0c-1.1-0.6-2.7-1-4.4-1H6.9c-1.8,0-3.4,0.4-4.5,1.1c0,0,0,0-0.1,0l0,0
							c-0.2,0.1-0.5,0.2-0.7,0.2s-0.4,0-0.6-0.1c-0.3-0.1-0.6-0.4-0.8-0.7c-0.4-0.7-0.1-1.7,0.6-2.1C1,24.1,1.3,24,1.5,24l0,0
							c1.3,0,3-0.4,4.5-1.3l5.3-2.9c1.5-0.9,2.7-2,3.4-3.1c0,0,0,0,0-0.1l0,0c0.1-0.2,0.3-0.4,0.5-0.5c0.7-0.4,1.7-0.1,2.1,0.6
							c0,0,0,0,0,0.1c0.6,1.2,1.8,2.4,3.3,3.3l3.7,2.3c1.5,0.9,3,1.4,4.3,1.4c0.1,0,0.1,0,0.2,0l0,0c1.3,0,3-0.4,4.5-1.3l5.2-2.9
							c0.9-0.5,1.7-1.1,2.3-1.8c-0.9-0.3-1.9-0.4-3-0.4h-7.2c-1.8,0-3.4,0.4-4.5,1.1c0,0,0,0-0.1,0l0,0c-0.2,0.1-0.5,0.2-0.7,0.2
							c-0.5,0-0.9-0.2-1.1-0.5c-0.1-0.1-0.2-0.3-0.3-0.4c0.1-0.4,0.1-0.6,0.1-0.9l0,0c0.1-1.3-0.2-3-0.9-4.6l-2.7-5.8
							c-0.7-1.6-1.8-2.9-2.9-3.6c0,0,0,0-0.1,0l0,0c-0.2-0.1-0.4-0.3-0.5-0.6c-0.4-0.8,0-1.7,0.8-2c0.8-0.4,1.7,0,2,0.7
							c0.1,0.3,0.2,0.5,0.1,0.8l0,0c-0.1,1.3,0.2,3,0.9,4.6l2.7,5.8c0.7,1.6,1.8,2.9,2.9,3.6c0,0,0,0,0.1,0l0,0l0,0
							c1.1,0.6,2.7,1,4.5,1h7.2c1.8,0,3.4-0.4,4.5-1.1c0,0,0,0,0.1,0l0,0c0.2-0.1,0.5-0.2,0.7-0.2c0.3,0,0.5,0.1,0.8,0.2
							c0.2,0.1,0.5,0.3,0.6,0.6c0.4,0.7,0.2,1.7-0.6,2.1c-0.2,0.1-0.5,0.2-0.8,0.2l0,0c-1.3,0-3,0.4-4.5,1.3l-5.2,2.9
							c-1.5,0.9-2.7,2-3.4,3.2c0,0,0,0,0,0.1l0,0c-0.1,0.2-0.3,0.4-0.5,0.5C29.6,26.7,29.4,26.8,29.2,26.8z"/>
					</g>
					<g>
						<defs>
							<path id="SVGID_6_" d="M29.2,26.8c-0.3,0.1-0.7,0-1-0.2c-0.2-0.1-0.4-0.4-0.6-0.6l0,0c-0.6-1.2-1.8-2.4-3.3-3.3l-3.7-2.3
								C19,19.5,17.4,19,16.1,19c0,0,0,0-0.1,0l0,0h-0.1c-1.3,0-2.9,0.4-4.4,1.3l-5.3,2.9c-0.9,0.5-1.7,1.1-2.3,1.8
								c0.9,0.3,1.9,0.4,3,0.4h7.4c1.8,0,3.4-0.4,4.5-1.1c0,0,0,0,0.1,0l0,0c0.2-0.1,0.5-0.2,0.7-0.2c0.7,0,1.3,0.5,1.5,1.1
								c0.1,0.2,0.1,0.4,0.1,0.7l0,0c-0.2,1.3,0.1,3,0.8,4.6l2.6,5.8c0.7,1.6,1.7,2.9,2.8,3.7c0,0,0,0,0.1,0l0,0
								c0.2,0.2,0.4,0.4,0.5,0.6c0.3,0.8,0,1.7-0.8,2s-1.7,0-2-0.8C25,41.6,25,41.3,25,41l0,0c0.2-1.3-0.1-3-0.8-4.6l-2.6-5.8
								c-0.7-1.6-1.7-2.9-2.8-3.7c0,0,0,0-0.1,0l0,0c-1.1-0.6-2.7-1-4.4-1H6.9c-1.8,0-3.4,0.4-4.5,1.1c0,0,0,0-0.1,0l0,0
								c-0.2,0.1-0.5,0.2-0.7,0.2s-0.4,0-0.6-0.1c-0.3-0.1-0.6-0.4-0.8-0.7c-0.4-0.7-0.1-1.7,0.6-2.1C1,24.1,1.3,24,1.5,24l0,0
								c1.3,0,3-0.4,4.5-1.3l5.3-2.9c1.5-0.9,2.7-2,3.4-3.1c0,0,0,0,0-0.1l0,0c0.1-0.2,0.3-0.4,0.5-0.5c0.7-0.4,1.7-0.1,2.1,0.6
								c0,0,0,0,0,0.1c0.6,1.2,1.8,2.4,3.3,3.3l3.7,2.3c1.5,0.9,3,1.4,4.3,1.4c0.1,0,0.1,0,0.2,0l0,0c1.3,0,3-0.4,4.5-1.3l5.2-2.9
								c0.9-0.5,1.7-1.1,2.3-1.8c-0.9-0.3-1.9-0.4-3-0.4h-7.2c-1.8,0-3.4,0.4-4.5,1.1c0,0,0,0-0.1,0l0,0c-0.2,0.1-0.5,0.2-0.7,0.2
								c-0.5,0-0.9-0.2-1.1-0.5c-0.1-0.1-0.2-0.3-0.3-0.4c0.1-0.4,0.1-0.6,0.1-0.9l0,0c0.1-1.3-0.2-3-0.9-4.6l-2.7-5.8
								c-0.7-1.6-1.8-2.9-2.9-3.6c0,0,0,0-0.1,0l0,0c-0.2-0.1-0.4-0.3-0.5-0.6c-0.4-0.8,0-1.7,0.8-2c0.8-0.4,1.7,0,2,0.7
								c0.1,0.3,0.2,0.5,0.1,0.8l0,0c-0.1,1.3,0.2,3,0.9,4.6l2.7,5.8c0.7,1.6,1.8,2.9,2.9,3.6c0,0,0,0,0.1,0l0,0l0,0
								c1.1,0.6,2.7,1,4.5,1h7.2c1.8,0,3.4-0.4,4.5-1.1c0,0,0,0,0.1,0l0,0c0.2-0.1,0.5-0.2,0.7-0.2c0.3,0,0.5,0.1,0.8,0.2
								c0.2,0.1,0.5,0.3,0.6,0.6c0.4,0.7,0.2,1.7-0.6,2.1c-0.2,0.1-0.5,0.2-0.8,0.2l0,0c-1.3,0-3,0.4-4.5,1.3l-5.2,2.9
								c-1.5,0.9-2.7,2-3.4,3.2c0,0,0,0,0,0.1l0,0c-0.1,0.2-0.3,0.4-0.5,0.5C29.6,26.7,29.4,26.8,29.2,26.8z"/>
						</defs>
						<use xlink:href="#SVGID_6_"  style="overflow:visible;"/>
						<clipPath id="SVGID_7_">
							<use xlink:href="#SVGID_6_"  style="overflow:visible;"/>
						</clipPath>
						<rect x="-0.6" y="-0.5" class="st0" width="46.1" height="43.8"/>
					</g>
				</g>
			</g>
		</g>
	</g>
</g>
<g>
	<path d="M67.7,31L66,24.9h-6.7L57.5,31h-1l5.6-19.3h1.1L68.8,31H67.7z M62.7,13.5L62.7,13.5l-3.1,10.4h6.2L62.7,13.5z"/>
	<path d="M72.8,31V12.7h-4.7v-1h10.3v1h-4.7V31H72.8z"/>
	<path d="M81.4,31V11.7h1V30h6.9v1H81.4z"/>
	<path d="M101.8,31l-1.8-6.1h-6.7L91.5,31h-1l5.6-19.3h1.1l5.6,19.3H101.8z M96.7,13.5L96.7,13.5l-3.1,10.4h6.2L96.7,13.5z"/>
	<path d="M107.2,31.1c-0.9-0.1-1.6-0.1-2.2-0.2v-1c0.7,0.1,1.4,0.2,2.2,0.3c0.8,0.1,1.5,0.1,2.1,0.1c0.8,0,1.4-0.1,1.9-0.2
		s0.9-0.3,1.3-0.6c0.4-0.3,0.6-0.7,0.7-1.3c0.1-0.6,0.2-1.4,0.2-2.4c0-1.3,0-2.2-0.1-2.6s-0.3-0.8-0.6-1c-0.3-0.2-0.9-0.4-1.8-0.5
		l-3.7-0.6c-0.8-0.1-1.4-0.4-1.7-0.7c-0.4-0.4-0.6-0.8-0.6-1.4c-0.1-0.6-0.1-1.4-0.1-2.5c0-1.8,0.4-3.1,1.1-3.9
		c0.7-0.8,2-1.2,3.9-1.2c0.8,0,1.6,0,2.4,0.1s1.3,0.2,1.7,0.3v0.9c-0.5-0.1-1.2-0.2-1.9-0.2c-0.7-0.1-1.4-0.1-2-0.1
		c-0.9,0-1.6,0.1-2.2,0.3c-0.5,0.2-1,0.4-1.2,0.8c-0.3,0.3-0.5,0.7-0.6,1.2s-0.1,1.1-0.1,1.9c0,1,0,1.7,0.1,2.2s0.3,0.8,0.5,1
		c0.3,0.2,0.7,0.3,1.3,0.4l3.4,0.5c1,0.1,1.7,0.3,2.1,0.6c0.5,0.2,0.8,0.7,1,1.3c0.1,0.3,0.1,0.6,0.2,1c0,0.4,0,1.1,0,2
		c0,1.4-0.1,2.4-0.4,3.2s-0.8,1.4-1.4,1.7c-0.7,0.4-1.7,0.5-2.9,0.5C108.8,31.2,108.1,31.2,107.2,31.1z"/>
	<path d="M123.3,11.7h5.5c1.3,0,2.2,0.3,2.9,0.8c0.6,0.5,1,1.2,1.2,1.9s0.2,1.8,0.2,3.1c0,1.2-0.1,2.3-0.3,3.1
		c-0.2,0.8-0.6,1.5-1.2,2c-0.6,0.5-1.6,0.8-2.8,0.8h-4.5V31h-1L123.3,11.7L123.3,11.7z M128.7,22.4c1,0,1.7-0.2,2.2-0.6
		s0.8-0.9,0.9-1.6c0.1-0.7,0.2-1.6,0.2-2.7c0-1.2-0.1-2.1-0.2-2.7c-0.1-0.7-0.4-1.2-0.9-1.6c-0.5-0.4-1.2-0.6-2.2-0.6h-4.4v9.7h4.4
		V22.4z"/>
	<path d="M145.4,31l-2.6-8.3c-0.2,0-0.5,0-0.9,0h-4.6V31h-1V11.7h5.7c1.3,0,2.2,0.2,2.8,0.7s1,1.1,1.1,1.9c0.2,0.7,0.2,1.7,0.2,2.9
		c0,1-0.1,1.8-0.2,2.4c-0.1,0.7-0.3,1.2-0.7,1.8c-0.4,0.5-0.9,0.9-1.6,1.1l2.7,8.5C146.3,31,145.4,31,145.4,31z M144.1,21.3
		c0.5-0.4,0.8-0.9,0.9-1.5c0.1-0.6,0.2-1.5,0.2-2.5c0-1.1-0.1-1.9-0.2-2.6c-0.1-0.6-0.4-1.1-0.9-1.5s-1.2-0.5-2.1-0.5h-4.7v9.1h4.5
		C142.9,21.8,143.6,21.6,144.1,21.3z"/>
	<path d="M151.6,30.6c-0.7-0.5-1.2-1.3-1.5-2.6c-0.2-1.3-0.4-3.5-0.4-6.6s0.1-5.3,0.4-6.6c0.2-1.3,0.7-2.2,1.5-2.6
		c0.7-0.5,2-0.7,3.8-0.7s3,0.2,3.8,0.7c0.7,0.5,1.2,1.3,1.5,2.6c0.2,1.3,0.4,3.5,0.4,6.5c0,3.1-0.1,5.2-0.4,6.5s-0.7,2.2-1.5,2.6
		c-0.7,0.5-2,0.7-3.8,0.7S152.3,31,151.6,30.6z M158.5,29.8c0.6-0.3,1-1.1,1.2-2.2c0.2-1.2,0.3-3.2,0.3-6.2s-0.1-5-0.3-6.2
		s-0.6-1.9-1.2-2.2c-0.6-0.3-1.6-0.5-3.1-0.5s-2.5,0.2-3.1,0.5s-1,1.1-1.2,2.2c-0.2,1.2-0.3,3.3-0.3,6.2c0,3,0.1,5,0.3,6.2
		s0.6,1.9,1.2,2.2c0.6,0.3,1.6,0.5,3.1,0.5S157.9,30.1,158.5,29.8z"/>
	<path d="M167.7,31V12.7H163v-1h10.3v1h-4.7V31H167.7z"/>
	<path d="M177.2,30.6c-0.7-0.5-1.2-1.3-1.5-2.6c-0.2-1.3-0.4-3.5-0.4-6.6s0.1-5.3,0.4-6.6c0.2-1.3,0.7-2.2,1.5-2.6
		c0.7-0.5,2-0.7,3.8-0.7s3,0.2,3.8,0.7c0.7,0.5,1.2,1.3,1.5,2.6c0.2,1.3,0.4,3.5,0.4,6.5c0,3.1-0.1,5.2-0.4,6.5s-0.7,2.2-1.5,2.6
		c-0.7,0.5-2,0.7-3.8,0.7S178,31,177.2,30.6z M184.1,29.8c0.6-0.3,1-1.1,1.2-2.2c0.2-1.2,0.3-3.2,0.3-6.2s-0.1-5-0.3-6.2
		s-0.6-1.9-1.2-2.2c-0.6-0.3-1.6-0.5-3.1-0.5s-2.5,0.2-3.1,0.5s-1,1.1-1.2,2.2c-0.2,1.2-0.3,3.3-0.3,6.2c0,3,0.1,5,0.3,6.2
		s0.6,1.9,1.2,2.2c0.6,0.3,1.6,0.5,3.1,0.5S183.5,30.1,184.1,29.8z"/>
	<path d="M195.6,31.2c-1.6,0-2.8-0.2-3.6-0.7s-1.2-1.3-1.5-2.7c-0.3-1.3-0.4-3.5-0.4-6.5s0.1-5.2,0.4-6.5s0.8-2.2,1.5-2.7
		s1.9-0.7,3.6-0.7c0.5,0,1,0,1.6,0.1s1,0.1,1.4,0.2v0.9c-0.9-0.2-1.8-0.3-2.7-0.3c-1.5,0-2.6,0.2-3.2,0.6c-0.6,0.4-1,1.2-1.2,2.3
		c-0.2,1.2-0.3,3.2-0.3,6s0.1,4.8,0.3,6s0.6,1.9,1.2,2.3c0.6,0.4,1.7,0.6,3.2,0.6c0.4,0,0.9,0,1.5-0.1c0.5-0.1,1-0.1,1.3-0.2v1
		C197.7,31.2,196.7,31.2,195.6,31.2z"/>
	<path d="M203.3,30.6c-0.7-0.5-1.2-1.3-1.5-2.6c-0.2-1.3-0.4-3.5-0.4-6.6s0.1-5.3,0.4-6.6c0.2-1.3,0.7-2.2,1.5-2.6
		c0.7-0.5,2-0.7,3.8-0.7s3,0.2,3.8,0.7c0.7,0.5,1.2,1.3,1.5,2.6c0.2,1.3,0.4,3.5,0.4,6.5c0,3.1-0.1,5.2-0.4,6.5s-0.7,2.2-1.5,2.6
		c-0.7,0.5-2,0.7-3.8,0.7S204,31,203.3,30.6z M210.1,29.8c0.6-0.3,1-1.1,1.2-2.2c0.2-1.2,0.3-3.2,0.3-6.2s-0.1-5-0.3-6.2
		s-0.6-1.9-1.2-2.2c-0.6-0.3-1.6-0.5-3.1-0.5s-2.5,0.2-3.1,0.5s-1,1.1-1.2,2.2c-0.2,1.2-0.3,3.3-0.3,6.2c0,3,0.1,5,0.3,6.2
		s0.6,1.9,1.2,2.2c0.6,0.3,1.6,0.5,3.1,0.5S209.6,30.1,210.1,29.8z"/>
	<path d="M216.7,31V11.7h1V30h6.9v1H216.7z"/>
</g>
</svg>
