<?xml version="1.0" encoding="utf-8"?>
<!-- Generator: Adobe Illustrator 21.0.0, SVG Export Plug-In . SVG Version: 6.00 Build 0)  -->
<svg version="1.1" id="图层_1" xmlns="http://www.w3.org/2000/svg" xmlns:xlink="http://www.w3.org/1999/xlink" x="0px" y="0px"
	 viewBox="0 0 90 90" style="enable-background:new 0 0 90 90;" xml:space="preserve">
<g>
	<path d="M23.8,79.3c-0.4,0-0.8-0.1-1.1-0.4c-0.6-0.4-0.9-1.1-0.8-1.9l3.8-22.5L9.5,38.7c-0.5-0.5-0.7-1.2-0.5-2
		c0.2-0.7,0.9-1.2,1.5-1.3l22.6-3.2l10.1-20.5c0.3-0.7,1-1,1.7-1s1.4,0.4,1.7,1l10.1,20.5l22.6,3.2c0.8,0.1,1.3,0.6,1.5,1.3
		c0.2,0.7,0,1.4-0.5,2L64.1,54.6l3.8,22.5c0.1,0.8-0.2,1.4-0.8,1.9c-0.6,0.4-1.3,0.5-2,0.2L44.9,68.5L24.8,79.1
		C24.5,79.2,24.1,79.3,23.8,79.3z M15,38.6l14.3,13.9c0.5,0.5,0.7,1,0.6,1.7l-3.3,19.6l17.6-9.2c0.6-0.3,1.2-0.3,1.8,0l17.6,9.2
		l-3.3-19.6c-0.1-0.6,0.1-1.2,0.6-1.7l14.3-13.9l-19.7-2.9c-0.7-0.1-1.1-0.5-1.4-1l-8.9-17.9l-9,17.9c-0.3,0.6-0.9,1-1.4,1L15,38.6z
		"/>
</g>
</svg>
