<?xml version="1.0" encoding="utf-8"?>
<!-- Generator: Adobe Illustrator 21.0.0, SVG Export Plug-In . SVG Version: 6.00 Build 0)  -->
<svg version="1.1" id="图层_1" xmlns="http://www.w3.org/2000/svg" xmlns:xlink="http://www.w3.org/1999/xlink" x="0px" y="0px"
	 viewBox="0 0 214 30" style="enable-background:new 0 0 214 30;" xml:space="preserve">
<title>neb</title>
<path d="M108.9,2.5l-2.4,7.3l0,0l-9.2,4.7l7.1,2.5l4.6,9.5l2.4-7.3l0,0l9.2-4.7l-7.1-2.5L108.9,2.5z M104.4,16.1l-5-1.8l0.1-0.1
	l6.7-3.4L104.4,16.1L104.4,16.1z M109.1,4.6l3.6,7.5l-7.3,3.7L109.1,4.6z M108.8,24.4l-3.3-7l5.1,1.8L108.8,24.4z M118.4,14.7
	l-7.4,3.8l-5.3-1.9l0.1-0.1l7.4-3.8l5.3,1.9L118.4,14.7z"/>
<path d="M155.4,14.6c0.3-0.4,0.4-0.8,0.4-1.2v-1.2c0-0.9-0.6-1.7-1.4-2l0,0c-0.5-0.2-1-0.3-1.6-0.2h-4.9v9.7h5.6
	c0.5,0,1-0.1,1.5-0.2h0.1c0.9-0.3,1.5-1.1,1.4-2v-0.9C156.6,15.7,156.1,15,155.4,14.6z M148.7,10.7h4.1c0.4,0,0.9,0.1,1.3,0.2l0,0
	c0.5,0.2,0.9,0.7,0.9,1.2v1.2c0,0.4-0.2,0.8-0.6,1h-5.7V10.7z M154.5,15.1c0.7,0.1,1.2,0.7,1.3,1.4v0.8c0,0.5-0.4,1-0.9,1.2h-0.1
	c-0.4,0.1-0.9,0.2-1.3,0.2h-4.8V15L154.5,15.1z"/>
<polygon points="136.1,19.6 136.1,10.1 143.9,10.1 143.9,10.9 136.9,10.9 136.9,14.4 143.1,14.4 143.1,15.2 136.9,15.2 136.9,18.8 
	144.6,18.8 144.6,19.6 "/>
<polygon points="124.9,11.5 124.9,19.4 124.1,19.4 124.1,9.5 132,18 132,10.1 132.8,10.1 132.8,20 "/>
<path d="M163.7,19.6c-2.1,0-3.9-1.7-3.9-3.8V9.9h0.8v5.9c0.1,1.7,1.4,3,3.1,3h0.6c1.7,0,3.1-1.3,3.1-3V9.9h0.8v5.9
	c-0.1,2.1-1.8,3.8-3.9,3.8L163.7,19.6z"/>
<polygon points="171.8,19.4 171.8,10.1 172.6,10.1 172.6,18.6 179.7,18.6 179.7,19.4 "/>
<path d="M190.3,19.5l-1.2-2.4h-5.6l-1.2,2.4h-0.9l4.9-9.7l4.9,9.7H190.3z M188.7,16.4l-2.4-4.7l-2.4,4.7H188.7z"/>
<path d="M193.6,19.4v-0.8h5.5c0.4,0,0.8-0.1,1.2-0.2c0.5-0.2,0.8-0.7,0.8-1.3v-0.5c0-0.5-0.3-1-0.8-1.2c-0.4-0.1-0.8-0.2-1.2-0.2h-3
	c-0.5,0-1-0.1-1.5-0.2c-0.8-0.3-1.3-1.1-1.3-1.9v-0.8c0-0.9,0.6-1.6,1.4-1.9c0.5-0.2,1-0.3,1.5-0.2h4.8V11h-4.8
	c-0.4,0-0.8,0.1-1.2,0.2c-0.5,0.1-0.8,0.6-0.8,1.1V13c0,0.5,0.3,1,0.8,1.1c0.4,0.1,0.8,0.2,1.3,0.2h3c0.5,0,1,0.1,1.5,0.2h0.1
	c0.8,0.4,1.3,1.1,1.3,2V17c0,0.9-0.5,1.6-1.3,2h-0.1c-0.5,0.2-1,0.2-1.5,0.2L193.6,19.4z"/>
<path d="M29.1,20.6L29,20c0.3,0,0.7,0,1,0c0.4,0,0.6-0.2,0.6-0.6V16c-0.6,0.2-1.1,0.4-1.7,0.6l-0.2-0.7c0.6-0.2,1.3-0.4,1.9-0.6V12
	h-1.7v-0.7h1.7V8.9h0.7v2.4h1.4V12h-1.4v3c0.5-0.2,1-0.5,1.5-0.8v0.7c-0.5,0.3-1,0.5-1.5,0.8v3.8c0,0.7-0.4,1.1-1,1.1H29.1z
	 M36.4,10.9v-2h0.7v1.9h3.2v0.7h-3.2v2.3h2.7v0.6c-0.5,1.5-1.3,2.8-2.4,3.8c0.9,0.7,2,1.4,3.3,1.9l-0.3,0.7
	c-1.4-0.6-2.5-1.3-3.4-2.1c-1,0.9-2.3,1.6-3.8,2.1l-0.3-0.6c1.4-0.5,2.7-1.1,3.6-1.9c-1.1-1.1-1.9-2.3-2.3-3.7h-0.7v-0.7h3v-2.3
	h-3.2v-0.7H36.4z M36.9,17.8c1-0.9,1.7-2,2.2-3.3h-4.3C35.2,15.8,35.9,16.9,36.9,17.8z"/>
<path d="M49.9,12.1V8.9h0.7v3.2h5.1v0.7h-4.4c0.9,2.3,2.4,4.3,4.7,6.1l-0.5,0.6c-2.4-2-4-4.2-4.9-6.6h-0.1v8h-0.7v-8h-0.1
	c-1,2.8-2.7,5-5.1,6.7L44.2,19c2.2-1.6,3.8-3.6,4.8-6.1h-4.4v-0.7L49.9,12.1L49.9,12.1z M54.6,11.1L54,11.5
	c-0.5-0.7-1.1-1.4-1.9-2.2l0.6-0.4C53.5,9.7,54.1,10.4,54.6,11.1z"/>
<path d="M66.2,8.9v1.8h5.2v0.7h-5.2v2.2h3.5v0.6C69,15.7,67.9,17,66.4,18c0.7,0.4,1.5,0.8,2.3,1.2c0.9,0.4,1.9,0.7,3,0.9l-0.4,0.7
	c-1.1-0.3-2.2-0.7-3.2-1.1c-0.9-0.4-1.6-0.8-2.3-1.2c-1.5,1-3.3,1.7-5.4,2.3L60,20.2c2.1-0.5,3.8-1.2,5.2-2.1
	c-0.7-0.5-1.3-1.1-1.8-1.8c-0.5-0.6-0.8-1.3-1-2.1h-1.1v-0.7h4.1v-2.2h-5.1v-0.7h5.1V8.9H66.2z M68.9,14.2h-5.8
	c0.2,0.7,0.6,1.4,1.1,2c0.5,0.5,1,1,1.6,1.4C67.2,16.7,68.2,15.6,68.9,14.2z"/>
<path d="M76,20.6l-0.2-0.7c0.4,0,0.7,0,1.1,0s0.6-0.2,0.6-0.6v-3.4c-0.5,0.2-1.1,0.4-1.6,0.5l-0.2-0.7c0.6-0.2,1.2-0.3,1.8-0.5V12
	h-1.7v-0.7h1.7V9.1h0.7v2.4h1.4v0.7h-1.4v2.9c0.5-0.2,1-0.5,1.5-0.7v0.7c-0.5,0.2-1,0.5-1.5,0.7v3.8c0,0.7-0.3,1.1-1,1.1H76V20.6z
	 M84.9,15.3v-1.1h0.7v1.1h1.6V16h-1.6v3.7c0,0.7-0.4,1-1.1,1h-1.7L82.7,20c0.6,0,1.1,0.1,1.6,0.1c0.4,0,0.6-0.2,0.6-0.6V16H80v-0.7
	C80,15.3,84.9,15.3,84.9,15.3z M84,8.9v1.4h2.7V11H84v1.7h3.2v0.7h-7v-0.7h3.1V11h-2.6v-0.7h2.6V8.9H84z M82.8,18.8l-0.6,0.4
	c-0.4-0.7-1-1.4-1.7-2.2l0.6-0.4C81.9,17.5,82.4,18.2,82.8,18.8z"/>
</svg>
