<?xml version="1.0" encoding="utf-8"?>
<!-- Generator: Adobe Illustrator 21.0.0, SVG Export Plug-In . SVG Version: 6.00 Build 0)  -->
<svg version="1.1" id="图层_1" xmlns="http://www.w3.org/2000/svg" xmlns:xlink="http://www.w3.org/1999/xlink" x="0px" y="0px"
	 viewBox="0 0 238 54" style="enable-background:new 0 0 238 54;" xml:space="preserve">
<style type="text/css">
	.st0{clip-path:url(#SVGID_2_);}
	.st1{clip-path:url(#SVGID_4_);fill:#389D00;}
	.st2{clip-path:url(#SVGID_6_);}
	.st3{clip-path:url(#SVGID_8_);fill:#389D00;}
	.st4{clip-path:url(#SVGID_10_);}
	.st5{clip-path:url(#SVGID_12_);fill:#389D00;}
	.st6{clip-path:url(#SVGID_14_);}
	.st7{clip-path:url(#SVGID_16_);enable-background:new    ;}
	.st8{clip-path:url(#SVGID_18_);}
	.st9{clip-path:url(#SVGID_20_);}
	.st10{clip-path:url(#SVGID_22_);fill:#389D00;}
	.st11{clip-path:url(#SVGID_24_);}
	.st12{clip-path:url(#SVGID_26_);enable-background:new    ;}
	.st13{clip-path:url(#SVGID_28_);}
	.st14{clip-path:url(#SVGID_30_);}
	.st15{clip-path:url(#SVGID_32_);fill:#231815;}
</style>
<g>
</g>
<g>
	<g>
		<defs>
			<path id="SVGID_1_" d="M23.8,35.3c-0.7,0.1-1.5,0.3-2.7,0.1c-0.6-0.2-1.3-0.3-1.6-0.7c-0.3-0.3-0.4-0.7-0.4-1.1
				c0.1-0.5,0.3-1,0.8-1.2c0.5-0.2,1-0.3,1.6,0c0.6,0.2,0.8,0.5,1.1,0.8C22.8,33.3,23.7,35,23.8,35.3"/>
		</defs>
		<clipPath id="SVGID_2_">
			<use xlink:href="#SVGID_1_"  style="overflow:visible;"/>
		</clipPath>
		<g class="st0">
			<defs>
				<rect id="SVGID_3_" x="-833.6" y="-9396.5" width="1998.4" height="10099.8"/>
			</defs>
			<clipPath id="SVGID_4_">
				<use xlink:href="#SVGID_3_"  style="overflow:visible;"/>
			</clipPath>
			<rect x="9.1" y="22.2" class="st1" width="24.7" height="23.2"/>
		</g>
	</g>
	<g>
		<defs>
			<path id="SVGID_5_" d="M23.9,36.3c-0.7,0.1-1.5,0-2.7,0.3c-0.6,0.3-1.2,0.6-1.5,1c-0.3,0.4-0.3,0.7-0.2,1.2c0.2,0.5,0.5,0.9,1,1
				c0.5,0.1,1.1,0.1,1.5-0.2c0.5-0.3,0.8-0.6,1-1C23.2,38.4,23.9,36.6,23.9,36.3"/>
		</defs>
		<clipPath id="SVGID_6_">
			<use xlink:href="#SVGID_5_"  style="overflow:visible;"/>
		</clipPath>
		<g class="st2">
			<defs>
				<rect id="SVGID_7_" x="-833.6" y="-9396.5" width="1998.4" height="10099.8"/>
			</defs>
			<clipPath id="SVGID_8_">
				<use xlink:href="#SVGID_7_"  style="overflow:visible;"/>
			</clipPath>
			<rect x="9.4" y="26.3" class="st3" width="24.4" height="23.5"/>
		</g>
	</g>
	<g>
		<defs>
			<path id="SVGID_9_" d="M50.7,24.2c-11.7-6.5-22.5,8.5-22.5,8.5l0.4,1.5c0,0,11.1-15.1,21.4-9.4c9.9,5.5,18.3,15,18.3,15l0.2-1.7
				C68.5,38.1,60.6,29.7,50.7,24.2"/>
		</defs>
		<clipPath id="SVGID_10_">
			<use xlink:href="#SVGID_9_"  style="overflow:visible;"/>
		</clipPath>
		<g class="st4">
			<defs>
				<rect id="SVGID_11_" x="-833.6" y="-9396.5" width="1998.4" height="10099.8"/>
			</defs>
			<clipPath id="SVGID_12_">
				<use xlink:href="#SVGID_11_"  style="overflow:visible;"/>
			</clipPath>
			<rect x="18.2" y="12.6" class="st5" width="60.3" height="37.3"/>
		</g>
	</g>
	<g>
		<defs>
			<rect id="SVGID_13_" x="25.2" y="6.8" width="44.7" height="33.9"/>
		</defs>
		<clipPath id="SVGID_14_">
			<use xlink:href="#SVGID_13_"  style="overflow:visible;"/>
		</clipPath>
		<g class="st6">
			<defs>
				<rect id="SVGID_15_" x="-833.6" y="-9396.5" width="1998.4" height="10099.8"/>
			</defs>
			<clipPath id="SVGID_16_">
				<use xlink:href="#SVGID_15_"  style="overflow:visible;"/>
			</clipPath>
			<g class="st7">
				<g>
					<defs>
						<rect id="SVGID_17_" x="21.7" y="3.9" width="54" height="40"/>
					</defs>
					<clipPath id="SVGID_18_">
						<use xlink:href="#SVGID_17_"  style="overflow:visible;"/>
					</clipPath>
					<g class="st8">
						<defs>
							<path id="SVGID_19_" d="M60,14.8C59.1,14,59.7,11,54.8,7c-2-1.6,2.1,6.4-3.6,5.4C48,11.9,36.2,9.6,28.9,22.8
								c-6.6,12-2.7,10.8-2,9.1c0.6-1.6,4.4-5.7,4.4-5.7s6.4-5.9,13.3-4.3c1.9,0.4,3.2,1.4,5.2,3.1c1.2,1-4.5,3.1-5.1,2.6
								c-0.6-0.4,2.7,2.5,10,1.4c1.6-0.2,11.4,13.2,14.2,11.5c0,0,1.8,0.1,0-4.8C69,35.6,74.2,26.9,60,14.8"/>
						</defs>
						<clipPath id="SVGID_20_">
							<use xlink:href="#SVGID_19_"  style="overflow:visible;"/>
						</clipPath>
						<g class="st9">
							<defs>
								<rect id="SVGID_21_" x="23.7" y="5.9" width="48" height="36"/>
							</defs>
							<clipPath id="SVGID_22_">
								<use xlink:href="#SVGID_21_"  style="overflow:visible;"/>
							</clipPath>
							<rect x="15.2" y="-3.2" class="st10" width="64.7" height="53.9"/>
						</g>
					</g>
				</g>
			</g>
		</g>
	</g>
	<g>
		<defs>
			<rect id="SVGID_23_" x="84" y="11.6" width="132.1" height="35"/>
		</defs>
		<clipPath id="SVGID_24_">
			<use xlink:href="#SVGID_23_"  style="overflow:visible;"/>
		</clipPath>
		<g class="st11">
			<defs>
				<rect id="SVGID_25_" x="-833.6" y="-9396.5" width="1998.4" height="10099.8"/>
			</defs>
			<clipPath id="SVGID_26_">
				<use xlink:href="#SVGID_25_"  style="overflow:visible;"/>
			</clipPath>
			<g class="st12">
				<g>
					<defs>
						<rect id="SVGID_27_" x="83.7" y="9.9" width="133.9" height="38"/>
					</defs>
					<clipPath id="SVGID_28_">
						<use xlink:href="#SVGID_27_"  style="overflow:visible;"/>
					</clipPath>
					<g class="st13">
						<defs>
							<path id="SVGID_29_" d="M137.3,11.6c-1.4,0-2.5,1.1-2.5,2.5l0,0v24.4c0,0.7,0.6,1.3,1.3,1.3c0.7,0,1.3-0.6,1.3-1.3
								L137.3,11.6L137.3,11.6C137.4,11.7,137.4,11.6,137.3,11.6z M120.1,18.8c-3.1,0-5.6,1.1-7.7,3.4c-1.8,2-2.8,4.4-2.8,7.2
								c0,2.8,1,5.2,2.9,7.3c1.9,2.1,4.4,3.1,7.5,3.1c3,0,5.5-1,7.5-3.1c1.9-2.1,2.9-4.5,2.9-7.3c0-2.8-0.9-5.2-2.8-7.2
								C125.7,19.9,123.1,18.8,120.1,18.8z M126.8,33.5c-0.7,1.2-1.6,2.2-2.8,2.9c-1.2,0.7-2.5,1-3.9,1c-1.4,0-2.7-0.3-3.9-1
								c-1.2-0.7-2.1-1.6-2.8-2.9c-0.7-1.2-1-2.6-1-4c0-2.2,0.8-4.1,2.3-5.7c1.5-1.6,3.4-2.4,5.5-2.4c2.1,0,4,0.8,5.5,2.4
								c1.5,1.6,2.3,3.5,2.3,5.7C127.9,30.9,127.5,32.2,126.8,33.5z M102.3,11.6C102.3,11.6,102.3,11.6,102.3,11.6l0,5.1v4.6
								c0,0,0,0,0,0c0,0,0,0,0,0v0h0c0,0,0,0,0,0c0,0.3-0.3,0.6-0.6,0.6c-0.2,0-0.3-0.1-0.4-0.2c0,0,0,0,0,0
								c-0.7-0.8-1.6-1.4-2.4-1.9c-1.3-0.7-2.8-1-4.4-1c-2.8,0-5.3,1-7.3,3.1c-2,2-3,4.5-3,7.4c0,2.9,1,5.4,3,7.5
								c2,2,4.4,3.1,7.2,3.1c1.6,0,3.1-0.3,4.4-1c0.9-0.5,1.8-1.1,2.6-1.8c0,0,0,0,0,0c0.1-0.1,0.3-0.2,0.4-0.2
								c0.3,0,0.6,0.3,0.6,0.6c0,0,0,0,0,0v1.1c0,0,0,0,0,0c0,0.7,0.6,1.3,1.3,1.3c0.7,0,1.3-0.6,1.3-1.3c0,0,0,0,0,0l0-24.4
								C104.8,12.8,103.7,11.6,102.3,11.6z M101.4,33.5c-0.7,1.2-1.6,2.2-2.9,2.9c-1.3,0.7-2.6,1.1-4,1.1c-1.4,0-2.7-0.4-3.9-1.1
								c-1.2-0.7-2.2-1.7-2.9-3s-1.1-2.6-1.1-4c0-1.4,0.4-2.8,1.1-4c0.7-1.3,1.7-2.3,2.9-3c1.2-0.7,2.5-1.1,4-1.1
								c2.2,0,4.1,0.8,5.6,2.3c1.5,1.6,2.3,3.5,2.3,5.8C102.4,30.9,102.1,32.3,101.4,33.5z M193.4,23.9L193.4,23.9
								C193.4,23.9,193.4,23.9,193.4,23.9c-1.4,0-2.6,1.1-2.6,2.5v0v12.1c0,0.7,0.6,1.3,1.3,1.3c0.7,0,1.3-0.6,1.3-1.3h0v-9.4h0
								V23.9z M192.1,14.8c-0.7,0-1.3,0.2-1.8,0.7c-0.5,0.5-0.7,1.1-0.7,1.8c0,0.7,0.2,1.3,0.7,1.8c0.5,0.5,1.1,0.7,1.8,0.7
								c0.7,0,1.3-0.2,1.8-0.7c0.5-0.5,0.7-1.1,0.7-1.8c0-0.7-0.2-1.3-0.7-1.8C193.4,15,192.8,14.8,192.1,14.8z M215.3,23
								c-0.5-1.3-1.4-2.3-2.6-3.1c-1.2-0.8-2.5-1.1-4-1.1c-1.5,0-2.8,0.3-4.1,1c-0.4,0.2-0.8,0.5-1.2,0.8c0,0,0,0,0,0
								c-0.5,0.4-1.2,1.1-1.2,1.1l0,0c-0.1,0.1-0.3,0.2-0.4,0.2c-0.3,0-0.6-0.3-0.6-0.6v-1.9l0,0c0,0,0,0,0,0
								c-1.4,0-2.6,1.1-2.6,2.6v0v16.6c0,0.7,0.6,1.3,1.3,1.3c0.7,0,1.3-0.6,1.3-1.3v0V32c0-2.6,0.1-4.4,0.4-5.4
								c0.4-1.5,1.2-2.8,2.4-3.8c1.2-1,2.6-1.5,4.2-1.5c1.4,0,2.5,0.3,3.3,1c0.8,0.7,1.4,1.7,1.7,3c0.2,0.8,0.3,2.3,0.3,4.6v8.7h0
								c0,0.7,0.6,1.3,1.3,1.3c0.7,0,1.3-0.6,1.3-1.3v0l0-9.5C216.1,26.3,215.9,24.3,215.3,23z M185.7,29c0-2.7-0.3-4.7-0.8-6
								c-0.6-1.3-1.4-2.3-2.6-3.1c-1.2-0.8-2.5-1.1-4-1.1c-1.5,0-2.8,0.3-4.1,1c-0.8,0.5-1.6,1.1-2.4,1.8c0,0,0,0,0,0
								c-0.1,0.1-0.3,0.2-0.4,0.2c-0.3,0-0.6-0.3-0.6-0.6v0v-7.1l0,0v0c0-1.4-1.1-2.6-2.6-2.6l0,0v26.9c0,0.7,0.6,1.3,1.3,1.3
								c0.7,0,1.3-0.6,1.3-1.3h0V32c0-2.6,0.1-4.4,0.4-5.4c0.4-1.5,1.2-2.8,2.4-3.8c1.2-1,2.6-1.5,4.2-1.5c1.4,0,2.5,0.3,3.3,1
								c0.8,0.7,1.4,1.7,1.7,3c0.2,0.8,0.3,2.3,0.3,4.6l0,8.7v0c0,0.7,0.6,1.3,1.3,1.3s1.3-0.6,1.3-1.3c0,0,0,0,0,0V29z M153.2,18.8
								c-1.6,0-3.1,0.3-4.4,1c-0.4,0.2-0.9,0.5-1.3,0.8v0c-0.7,0.6-1.2,1.1-1.2,1.1l0,0c-0.1,0.1-0.3,0.2-0.4,0.2
								c-0.3,0-0.6-0.3-0.6-0.6h0l0-2l0,0c0,0,0,0,0,0c-1.4,0-2.6,1.1-2.6,2.6c0,0,0,0,0,0l0,23.4c0,0,0,0,0,0
								c0,0.7,0.6,1.3,1.3,1.3c0.7,0,1.3-0.6,1.3-1.3c0,0,0,0,0,0l0-7.9c0-0.3,0.3-0.6,0.6-0.6c0.2,0,0.3,0.1,0.4,0.2c0,0,0,0,0,0
								c0.8,0.8,1.6,1.4,2.6,1.8c1.3,0.7,2.8,1,4.4,1c2.8,0,5.2-1,7.2-3.1c2-2,3-4.5,3-7.5c0-2.9-1-5.3-3-7.4
								C158.5,19.9,156.1,18.8,153.2,18.8z M159.8,33.4c-0.7,1.3-1.7,2.3-2.9,3c-1.2,0.7-2.5,1.1-3.9,1.1c-1.4,0-2.7-0.4-4-1.1
								c-1.3-0.7-2.2-1.7-2.9-2.9c-0.7-1.2-1-2.6-1-4.1c0-2.3,0.8-4.2,2.3-5.8c1.5-1.5,3.4-2.3,5.6-2.3c1.4,0,2.7,0.4,3.9,1.1
								c1.2,0.7,2.2,1.7,2.9,3c0.7,1.3,1.1,2.6,1.1,4C160.9,30.7,160.6,32.1,159.8,33.4z"/>
						</defs>
						<clipPath id="SVGID_30_">
							<use xlink:href="#SVGID_29_"  style="overflow:visible;"/>
						</clipPath>
						<g class="st14">
							<defs>
								<rect id="SVGID_31_" x="83.7" y="9.9" width="133.9" height="38"/>
							</defs>
							<clipPath id="SVGID_32_">
								<use xlink:href="#SVGID_31_"  style="overflow:visible;"/>
							</clipPath>
							<rect x="74.1" y="1.6" class="st15" width="152.1" height="55"/>
						</g>
					</g>
				</g>
			</g>
		</g>
	</g>
</g>
<g>
</g>
<g>
</g>
<g>
</g>
<g>
</g>
<g>
</g>
<g>
</g>
<g>
</g>
<g>
</g>
<g>
</g>
<g>
</g>
<g>
</g>
<g>
</g>
<g>
</g>
<g>
</g>
<g>
</g>
</svg>
