<?xml version="1.0" encoding="utf-8"?>
<!-- Generator: Adobe Illustrator 21.0.0, SVG Export Plug-In . SVG Version: 6.00 Build 0)  -->
<svg version="1.1" id="图层_1" xmlns="http://www.w3.org/2000/svg" xmlns:xlink="http://www.w3.org/1999/xlink" x="0px" y="0px"
	 viewBox="0 0 238 54" style="enable-background:new 0 0 238 54;" xml:space="preserve">
<style type="text/css">
	.st0{clip-path:url(#SVGID_2_);}
	.st1{clip-path:url(#SVGID_4_);}
	.st2{clip-path:url(#SVGID_6_);}
	.st3{clip-path:url(#SVGID_8_);}
	.st4{clip-path:url(#SVGID_10_);}
	.st5{clip-path:url(#SVGID_12_);}
	.st6{clip-path:url(#SVGID_14_);}
	.st7{clip-path:url(#SVGID_16_);}
	.st8{clip-path:url(#SVGID_18_);}
	.st9{clip-path:url(#SVGID_20_);}
	.st10{clip-path:url(#SVGID_22_);}
	.st11{clip-path:url(#SVGID_24_);}
	.st12{clip-path:url(#SVGID_26_);}
	.st13{clip-path:url(#SVGID_28_);}
	.st14{clip-path:url(#SVGID_30_);}
	.st15{clip-path:url(#SVGID_32_);}
</style>
<g>
</g>
<g>
	<g>
		<defs>
			<path id="SVGID_1_" d="M169.3,15l-13.9,0l0,3l13.9,0c1.7,0,3,1.3,3,3v0.2c0,1.7-1.3,3-3,3l-13.9,0l0,3l13.9,0c1.7,0,3,1.3,3,3
				l0,0.2c0,1.7-1.3,3-3,3l-13.9,0l0,3l13.9,0c3.3,0,6-2.7,6-6l0-0.2c0-1.8-0.8-3.4-2-4.5c1.3-1.1,2-2.7,2-4.5l0-0.2
				C175.3,17.7,172.6,15,169.3,15"/>
		</defs>
		<clipPath id="SVGID_2_">
			<use xlink:href="#SVGID_1_"  style="overflow:visible;"/>
		</clipPath>
		<g class="st0">
			<defs>
				<rect id="SVGID_3_" x="-2599.8" y="-3949.1" width="4645" height="5054"/>
			</defs>
			<clipPath id="SVGID_4_">
				<use xlink:href="#SVGID_3_"  style="overflow:visible;"/>
			</clipPath>
			<rect x="150.4" y="10" class="st1" width="29.9" height="31.5"/>
		</g>
	</g>
	<g>
		<defs>
			<path id="SVGID_5_" d="M198.4,24.2l-12.4,0l0-3.2c0-1.7,1.3-3,3-3l13.9,0l0-3L189,15c-3.3,0-6,2.7-6,6l0,3.2l0,3l0,3.2
				c0,3.3,2.7,6,6,6l9.4,0c3.3,0,6-2.7,6-6v-0.2C204.4,26.9,201.7,24.2,198.4,24.2z M201.4,30.4c0,1.7-1.3,3-3,3l-9.4,0
				c-1.7,0-3-1.3-3-3l0-3.2l12.4,0c1.7,0,3,1.3,3,3L201.4,30.4z"/>
		</defs>
		<clipPath id="SVGID_6_">
			<use xlink:href="#SVGID_5_"  style="overflow:visible;"/>
		</clipPath>
		<g class="st2">
			<defs>
				<rect id="SVGID_7_" x="-2599.8" y="-3949.1" width="4645" height="5054"/>
			</defs>
			<clipPath id="SVGID_8_">
				<use xlink:href="#SVGID_7_"  style="overflow:visible;"/>
			</clipPath>
			<rect x="178" y="10" class="st3" width="31.4" height="31.4"/>
		</g>
	</g>
	<g>
		<defs>
			<path id="SVGID_9_" d="M227.1,24.2l-3.4,0l-6,0c-1.7,0-3-1.3-3-3l0-3.2l16.9,0l0-3l-19.9,0l0,6.2c0,3.3,2.7,6,6,6l6,0l3.4,0
				c1.7,0,3,1.3,3,3v0.2c0,1.7-1.3,3-3,3l-9.4,0c-1.7,0-3-1.3-3-3l-3,0c0,3.3,2.7,6,6,6l9.4,0c3.3,0,6-2.7,6-6l0-0.2
				C233.1,26.9,230.4,24.2,227.1,24.2"/>
		</defs>
		<clipPath id="SVGID_10_">
			<use xlink:href="#SVGID_9_"  style="overflow:visible;"/>
		</clipPath>
		<g class="st4">
			<defs>
				<rect id="SVGID_11_" x="-2599.8" y="-3949.1" width="4645" height="5054"/>
			</defs>
			<clipPath id="SVGID_12_">
				<use xlink:href="#SVGID_11_"  style="overflow:visible;"/>
			</clipPath>
			<rect x="206.6" y="10" class="st5" width="31.4" height="31.5"/>
		</g>
	</g>
	<g>
		<defs>
			<polygon id="SVGID_13_" points="4.2,18 13.4,18 13.4,36.4 16.4,36.4 16.4,18 25.6,18 25.6,15 4.2,15 			"/>
		</defs>
		<clipPath id="SVGID_14_">
			<use xlink:href="#SVGID_13_"  style="overflow:visible;"/>
		</clipPath>
		<g class="st6">
			<defs>
				<rect id="SVGID_15_" x="-2599.8" y="-3949.1" width="4645" height="5054"/>
			</defs>
			<clipPath id="SVGID_16_">
				<use xlink:href="#SVGID_15_"  style="overflow:visible;"/>
			</clipPath>
			<rect x="-0.8" y="10" class="st7" width="31.4" height="31.4"/>
		</g>
	</g>
	<g>
		<defs>
			<path id="SVGID_17_" d="M44.1,15h-3.2c-5,0-9.1,4.1-9.1,9.1v3.2c0,5,4.1,9.1,9.1,9.1h3.2c5,0,9.1-4.1,9.1-9.1v-3.2
				C53.2,19.1,49.1,15,44.1,15z M50.2,27.3c0,3.4-2.8,6.1-6.1,6.1h-3.2c-3.4,0-6.1-2.8-6.1-6.1v-3.2c0-3.4,2.8-6.1,6.1-6.1h3.2
				c3.4,0,6.1,2.8,6.1,6.1V27.3z"/>
		</defs>
		<clipPath id="SVGID_18_">
			<use xlink:href="#SVGID_17_"  style="overflow:visible;"/>
		</clipPath>
		<g class="st8">
			<defs>
				<rect id="SVGID_19_" x="-2599.8" y="-3949.1" width="4645" height="5054"/>
			</defs>
			<clipPath id="SVGID_20_">
				<use xlink:href="#SVGID_19_"  style="overflow:visible;"/>
			</clipPath>
			<rect x="26.8" y="10" class="st9" width="31.4" height="31.4"/>
		</g>
	</g>
	<g>
		<defs>
			<polygon id="SVGID_21_" points="126.2,15 140,32.3 140,15 143,15 143,36.4 139.6,36.4 125.7,19.1 125.7,36.4 122.7,36.4 
				122.7,15 			"/>
		</defs>
		<clipPath id="SVGID_22_">
			<use xlink:href="#SVGID_21_"  style="overflow:visible;"/>
		</clipPath>
		<g class="st10">
			<defs>
				<rect id="SVGID_23_" x="-2599.8" y="-3949.1" width="4645" height="5054"/>
			</defs>
			<clipPath id="SVGID_24_">
				<use xlink:href="#SVGID_23_"  style="overflow:visible;"/>
			</clipPath>
			<rect x="117.7" y="10" class="st11" width="30.3" height="31.4"/>
		</g>
	</g>
	<g>
		<defs>
			<path id="SVGID_25_" d="M94,36.4h19.9v-3H97V29c0-0.4,0.1-0.6,0.4-0.9c0.9-0.9,3.2-1.1,4.4-1.1l8.5,0v-3h-8.4
				c-0.4,0-2.8,0-4.8,0.8V18h16.9v-3H94V36.4z"/>
		</defs>
		<clipPath id="SVGID_26_">
			<use xlink:href="#SVGID_25_"  style="overflow:visible;"/>
		</clipPath>
		<g class="st12">
			<defs>
				<rect id="SVGID_27_" x="-2599.8" y="-3949.1" width="4645" height="5054"/>
			</defs>
			<clipPath id="SVGID_28_">
				<use xlink:href="#SVGID_27_"  style="overflow:visible;"/>
			</clipPath>
			<rect x="89" y="10" class="st13" width="29.9" height="31.4"/>
		</g>
	</g>
	<g>
		<defs>
			<path id="SVGID_29_" d="M84.8,33.3c-1.5,0.1-4.3-0.1-6.1-2.7c-1.2-1.7-3.8-5.2-4.9-6.6L85,15H80L66.4,25.9V15h-3v21.4h3v-6.8
				l5.1-3.9c1.1,1.4,3.7,4.9,4.8,6.5c2.3,3.4,5.7,4.1,7.9,4.1c0.2,0,0.4,0,0.6,0V33.3z"/>
		</defs>
		<clipPath id="SVGID_30_">
			<use xlink:href="#SVGID_29_"  style="overflow:visible;"/>
		</clipPath>
		<g class="st14">
			<defs>
				<rect id="SVGID_31_" x="-2599.8" y="-3949.1" width="4645" height="5054"/>
			</defs>
			<clipPath id="SVGID_32_">
				<use xlink:href="#SVGID_31_"  style="overflow:visible;"/>
			</clipPath>
			<rect x="58.4" y="10" class="st15" width="31.6" height="31.4"/>
		</g>
	</g>
</g>
<g>
</g>
<g>
</g>
<g>
</g>
<g>
</g>
<g>
</g>
<g>
</g>
<g>
</g>
<g>
</g>
<g>
</g>
<g>
</g>
<g>
</g>
<g>
</g>
<g>
</g>
<g>
</g>
<g>
</g>
</svg>
