<?xml version="1.0" encoding="utf-8"?>
<!-- Generator: Adobe Illustrator 21.0.0, SVG Export Plug-In . SVG Version: 6.00 Build 0)  -->
<svg version="1.1" id="图层_1" xmlns="http://www.w3.org/2000/svg" xmlns:xlink="http://www.w3.org/1999/xlink" x="0px" y="0px"
	 viewBox="0 0 238 54" style="enable-background:new 0 0 238 54;" xml:space="preserve">
<style type="text/css">
	.st0{fill:none;}
	.st1{fill:#2DF1DB;}
	.st2{enable-background:new    ;}
</style>
<g>
	<g>
		<g>
			<g>
				<polyline class="st0" points="238,2 0,2 0,46 238,46 				"/>
				<g>
					<path class="st1" d="M20.6,2.4c5.3,0,8.1,1.3,10.3,2.6c11.8,6.7,13.6,24.8,2.2,33.6c-2.4,1.9-4,3.1-9.7,4c0,0-0.1,1-0.4,3.2
						h-3.9c0.4-1.7,0.4-3.2,0.4-3.2C9.5,42,1.4,33.7,0.9,23.7C0.3,13.6,7.7,2.4,20.6,2.4z M21.7,28.8c1.4-4.5,3.4-6.9,8.5-7
						c0.6,0,2.5,0.1,2.6,0.1c0.1,0.1-0.1,1.9-0.6,3.3c-1.5,4.2-4.1,5.8-6.5,7c-1.2,0.6-2.9,0.9-2.9,0.9c0.5,3.3,0.5,5.6,0.5,5.6
						C33.4,37.4,39,27.1,36.8,18.4c-2.1-8.6-11.3-14.2-20-12.1C9.1,8.2,4.4,15.1,4.4,23c0,8.1,5.8,14.8,13.8,15.8
						c0.6,0.1,1.2,0,1.2,0c0.1-2.3-0.2-5.3-0.2-5.3c-8.6-2.2-12-8.8-10.8-15.6c0.1-0.4,0.4-2.3,0.5-2.4c0,0,1.1,0.1,1.3,0.1
						c3.1,0.5,5.3,0.8,7.7,3.4C20.6,21.8,21.5,24.6,21.7,28.8z"/>
				</g>
			</g>
		</g>
	</g>
</g>
<g class="st2">
	<path d="M53,16.6c1.1-1.3,3.2-1.9,6.5-1.9s5.4,0.7,6.5,1.9s1.6,3.9,1.6,8c0,4-0.5,6.7-1.6,8s-3.2,1.9-6.5,1.9s-5.4-0.7-6.5-1.9
		c-1.1-1.3-1.6-3.9-1.6-8C51.5,20.6,52,17.9,53,16.6z M56.2,18.7c-0.3,0.2-0.6,0.6-0.7,1.1c-0.3,1.1-0.3,2.2-0.3,4.8
		s0.1,3.6,0.3,4.8c0.6,1.6,1.5,1.6,4,1.7c2,0,3.1-0.1,3.7-1c0.2-0.3,0.3-0.6,0.4-1.2c0.3-1.1,0.3-2.2,0.3-4.3c0-1.1,0-1.9,0-2.6
		c0-1.2-0.3-2.5-0.6-3c-0.6-0.9-1.6-1-3.7-1C57.8,18.1,57,18.3,56.2,18.7z"/>
	<path d="M78.3,41.7h-4V15h3.9v2.3c0,0,0.7-1.5,1.7-2s2.2-0.5,3.7-0.5c5.8,0.1,7.3,1.8,7.5,9.9c-0.2,8.2-1.7,9.8-7.5,9.9
		c-1.6,0-2.8-0.4-3.3-0.7c-1.2-0.8-1.9-1.6-1.9-1.6L78.3,41.7L78.3,41.7z M79.2,19.3c-0.5,0.8-0.8,2.5-0.8,5v0.6
		c0,2.4,0.3,4,0.8,4.9c0.5,0.9,1.6,1.3,3.2,1.3c1.8,0,2.4-0.1,3.3-0.5c1.2-0.8,1.3-2.2,1.4-6c0-2.6-0.2-4-0.5-5
		c-0.1-0.5-0.4-0.9-0.9-1.1c-0.8-0.4-1.5-0.5-3.3-0.5C80.8,18.1,79.7,18.5,79.2,19.3z"/>
	<path d="M111.9,34.2H106c-3,0-5.1-0.6-6.3-1.6c-0.6-0.5-1.1-1.2-1.5-2c-0.7-1.7-0.8-3.3-0.8-6c0-3.7,0.6-6.3,1.8-7.7
		c1.2-1.5,3.2-2.2,6-2.2c2.6,0,4.5,0.6,5.7,1.8c1.2,1.2,1.8,3.2,1.8,6.3v3.1h-11.4c0,2.3,0.2,3.4,1.2,4.1s2.1,0.8,4.7,0.8h5v3.4
		H111.9z M108.8,22.8v-0.6c0-1.8-0.2-2.8-0.6-3.3s-1.5-0.7-3.1-0.7c-1.7,0-2.7,0.3-3.2,0.8c-0.4,0.5-0.7,1.8-0.8,3.9L108.8,22.8
		L108.8,22.8z"/>
	<path d="M119.2,15h3.9v2.4c0,0,0.4-0.8,1.1-1.5c0.8-0.8,2-1.2,4.6-1.2c2.7,0,4.5,1.1,5.4,2c1.1,1.1,1.4,3.1,1.4,5.7v11.9h-4l0,0
		V22.7c0-1.3-0.1-2.8-0.7-3.4c-0.6-0.6-1.5-1.2-3-1.2c-1.9,0-3.1,0.5-3.8,1.2c-0.6,0.7-0.9,1.7-0.9,3.4v11.5h-4L119.2,15L119.2,15z"
		/>
	<path d="M221.3,15h3.9v2.4c0,0,0.4-0.8,1.1-1.5c0.8-0.8,2-1.2,4.6-1.2c2.7,0,4.5,1.1,5.4,2c1.1,1.1,1.4,3.1,1.4,5.7v11.9h-4l0,0
		V22.7c0-1.3-0.1-2.8-0.7-3.4c-0.6-0.6-1.5-1.2-3-1.2c-1.9,0-3.1,0.5-3.8,1.2c-0.6,0.7-0.9,1.7-0.9,3.4v11.5h-4V15L221.3,15z"/>
	<path d="M148,10.7v5.4h4.5v3.5H148v15.5h-3.7V19.6h-3.8v-3.5h3.8v-5.4C144.3,10.7,148,10.7,148,10.7z"/>
	<path d="M158,16.6c1.1-1.3,3.2-1.9,6.5-1.9s5.4,0.7,6.5,1.9s1.6,3.9,1.6,8c0,4-0.5,6.7-1.6,8s-3.2,1.9-6.5,1.9s-5.4-0.7-6.5-1.9
		s-1.6-3.9-1.6-8C156.4,20.6,156.9,17.9,158,16.6z M161.2,18.7c-0.3,0.2-0.6,0.6-0.7,1.1c-0.3,1.1-0.3,2.2-0.3,4.8s0.1,3.6,0.3,4.8
		c0.6,1.6,1.5,1.6,4,1.7c2,0,3.1-0.1,3.7-1c0.2-0.3,0.3-0.6,0.4-1.2c0.3-1.1,0.3-2.2,0.3-4.3c0-1.1,0-1.9,0-2.6c0-1.2-0.3-2.5-0.6-3
		c-0.6-0.9-1.6-1-3.7-1C162.7,18.1,161.9,18.3,161.2,18.7z"/>
	<path d="M179.2,34.2V7.6h4v15.2h1.8l6.1-7.5h4.4l-7.4,9.2l7.4,9.8h-4.3l-6.2-8h-1.8v8L179.2,34.2L179.2,34.2z"/>
	<path d="M214,34.2h-5.9c-3,0-5.1-0.6-6.3-1.6c-0.6-0.5-1.1-1.2-1.5-2c-0.7-1.7-0.8-3.3-0.8-6c0-3.7,0.6-6.3,1.8-7.7
		c1.2-1.5,3.2-2.2,6-2.2c2.6,0,4.5,0.6,5.7,1.8c1.2,1.2,1.8,3.2,1.8,6.3v3.1h-11.4c0,2.3,0.2,3.4,1.2,4.1s2.1,0.8,4.7,0.8h5v3.4H214
		z M210.9,22.8v-0.6c0-1.8-0.2-2.8-0.6-3.3c-0.4-0.5-1.5-0.7-3.1-0.7c-1.7,0-2.7,0.3-3.2,0.8c-0.4,0.5-0.7,1.8-0.8,3.9L210.9,22.8
		L210.9,22.8z"/>
</g>
</svg>
