<?xml version="1.0" encoding="utf-8"?>
<!-- Generator: Adobe Illustrator 21.0.0, SVG Export Plug-In . SVG Version: 6.00 Build 0)  -->
<svg version="1.1" id="图层_1" xmlns="http://www.w3.org/2000/svg" xmlns:xlink="http://www.w3.org/1999/xlink" x="0px" y="0px"
	 viewBox="0 0 238 54" style="enable-background:new 0 0 238 54;" xml:space="preserve">
<style type="text/css">
	.st0{opacity:0.54;enable-background:new    ;}
	.st1{clip-path:url(#SVGID_2_);}
	.st2{clip-path:url(#SVGID_4_);}
	.st3{clip-path:url(#SVGID_6_);}
	.st4{clip-path:url(#SVGID_8_);}
	.st5{clip-path:url(#SVGID_10_);}
	.st6{clip-path:url(#SVGID_12_);}
	.st7{clip-path:url(#SVGID_14_);}
	.st8{clip-path:url(#SVGID_16_);}
	.st9{clip-path:url(#SVGID_18_);}
	.st10{clip-path:url(#SVGID_20_);}
	.st11{clip-path:url(#SVGID_22_);}
	.st12{clip-path:url(#SVGID_24_);}
	.st13{clip-path:url(#SVGID_26_);}
	.st14{clip-path:url(#SVGID_28_);}
	.st15{clip-path:url(#SVGID_30_);}
	.st16{clip-path:url(#SVGID_32_);}
	.st17{clip-path:url(#SVGID_34_);}
</style>
<g>
</g>
<g>
	<g class="st0">
		<g>
			<defs>
				<rect id="SVGID_1_" x="0.5" y="0.5" width="237" height="53"/>
			</defs>
			<clipPath id="SVGID_2_">
				<use xlink:href="#SVGID_1_"  style="overflow:visible;"/>
			</clipPath>
			<g class="st1">
				<defs>
					<polygon id="SVGID_3_" points="88.3,38 88.3,17.1 105.9,17.1 105.9,18.8 90,18.8 90,26.7 104.2,26.7 104.2,28.4 90,28.4 
						90,36.3 107.7,36.3 107.7,38 					"/>
				</defs>
				<clipPath id="SVGID_4_">
					<use xlink:href="#SVGID_3_"  style="overflow:visible;"/>
				</clipPath>
				<g class="st2">
					<defs>
						<rect id="SVGID_5_" x="0.5" y="0.5" width="238" height="54"/>
					</defs>
					<clipPath id="SVGID_6_">
						<use xlink:href="#SVGID_5_"  style="overflow:visible;"/>
					</clipPath>
					<rect x="83.3" y="12.1" class="st3" width="29.4" height="31"/>
				</g>
			</g>
			<g class="st1">
				<defs>
					<path id="SVGID_7_" d="M211,37.9l-2.7-5.2h-12.6l-2.7,5.2h-2l11-21.2l11,21.2H211z M207.4,31L202,20.6L196.6,31H207.4z"/>
				</defs>
				<clipPath id="SVGID_8_">
					<use xlink:href="#SVGID_7_"  style="overflow:visible;"/>
				</clipPath>
				<g class="st4">
					<defs>
						<rect id="SVGID_9_" x="0.5" y="0.5" width="238" height="54"/>
					</defs>
					<clipPath id="SVGID_10_">
						<use xlink:href="#SVGID_9_"  style="overflow:visible;"/>
					</clipPath>
					<rect x="186" y="11.6" class="st5" width="32" height="31.2"/>
				</g>
			</g>
			<g class="st1">
				<defs>
					<polygon id="SVGID_11_" points="169.2,37.6 169.2,17.1 171,17.1 171,35.9 187,35.9 187,37.6 					"/>
				</defs>
				<clipPath id="SVGID_12_">
					<use xlink:href="#SVGID_11_"  style="overflow:visible;"/>
				</clipPath>
				<g class="st6">
					<defs>
						<rect id="SVGID_13_" x="0.5" y="0.5" width="238" height="54"/>
					</defs>
					<clipPath id="SVGID_14_">
						<use xlink:href="#SVGID_13_"  style="overflow:visible;"/>
					</clipPath>
					<rect x="164.2" y="12.1" class="st7" width="27.8" height="30.5"/>
				</g>
			</g>
			<g class="st1">
				<defs>
					<polygon id="SVGID_15_" points="63,20.2 63,37.6 61.2,37.6 61.2,15.8 79,34.5 79,17.1 80.8,17.1 80.8,38.9 					"/>
				</defs>
				<clipPath id="SVGID_16_">
					<use xlink:href="#SVGID_15_"  style="overflow:visible;"/>
				</clipPath>
				<g class="st8">
					<defs>
						<rect id="SVGID_17_" x="0.5" y="0.5" width="238" height="54"/>
					</defs>
					<clipPath id="SVGID_18_">
						<use xlink:href="#SVGID_17_"  style="overflow:visible;"/>
					</clipPath>
					<rect x="56.2" y="10.8" class="st9" width="29.5" height="33.1"/>
				</g>
			</g>
			<g class="st1">
				<defs>
					<path id="SVGID_19_" d="M132,27c0.6-0.8,1-1.7,1-2.7v-2.6c0-2-1.3-3.8-3.3-4.4l-0.1,0c-1.1-0.4-2.3-0.5-3.5-0.5H115v21.4h12.8
						c1.2,0,2.4-0.2,3.5-0.6l0.1,0c2-0.6,3.3-2.4,3.3-4.4v-1.9C134.6,29.4,133.6,27.8,132,27z M116.9,18.5h9.2c1,0,2,0.1,2.9,0.5
						l0.1,0c1.2,0.4,2,1.4,2,2.6v2.6c0,0.9-0.5,1.8-1.4,2.2h-12.8V18.5z M129.9,28.1c1.6,0.2,2.8,1.5,2.9,3.1v1.9
						c0,1.2-0.8,2.3-2,2.6l-0.1,0c-0.9,0.3-1.9,0.5-2.9,0.5h-10.9v-8.1H129.9z"/>
				</defs>
				<clipPath id="SVGID_20_">
					<use xlink:href="#SVGID_19_"  style="overflow:visible;"/>
				</clipPath>
				<g class="st10">
					<defs>
						<rect id="SVGID_21_" x="0.5" y="0.5" width="238" height="54"/>
					</defs>
					<clipPath id="SVGID_22_">
						<use xlink:href="#SVGID_21_"  style="overflow:visible;"/>
					</clipPath>
					<rect x="110" y="11.7" class="st11" width="29.7" height="31.4"/>
				</g>
			</g>
			<g class="st1">
				<defs>
					<path id="SVGID_23_" d="M218.6,37.6v-1.8h12.3c0.9,0,1.9-0.1,2.8-0.4c1.2-0.5,1.9-1.6,1.9-2.8v-1.2c0-1.2-0.7-2.2-1.9-2.7
						c-0.9-0.3-1.9-0.4-2.8-0.4h-6.7c-1.2,0-2.3-0.2-3.4-0.6c-1.9-0.6-3.1-2.2-3.1-4.1v-1.8c0-1.9,1.3-3.5,3.1-4.1
						c1.1-0.4,2.2-0.5,3.4-0.5h10.9v1.8h-10.9c-1,0-1.9,0.2-2.8,0.5c-1.1,0.3-1.8,1.3-1.8,2.4v1.8c0,1.1,0.7,2.1,1.8,2.4
						c0.9,0.3,1.9,0.5,2.9,0.5h6.7c1.1,0,2.3,0.2,3.4,0.5l0.2,0.1c1.8,0.8,2.9,2.5,3,4.4l0,1.2c-0.1,1.9-1.2,3.6-3,4.4l-0.2,0.1
						c-1.1,0.4-2.2,0.5-3.4,0.5H218.6z"/>
				</defs>
				<clipPath id="SVGID_24_">
					<use xlink:href="#SVGID_23_"  style="overflow:visible;"/>
				</clipPath>
				<g class="st12">
					<defs>
						<rect id="SVGID_25_" x="0.5" y="0.5" width="238" height="54"/>
					</defs>
					<clipPath id="SVGID_26_">
						<use xlink:href="#SVGID_25_"  style="overflow:visible;"/>
					</clipPath>
					<rect x="212.6" y="12.1" class="st13" width="29.8" height="30.5"/>
				</g>
			</g>
			<g class="st1">
				<defs>
					<path id="SVGID_27_" d="M150.7,38.1c-4.9-0.1-8.8-3.7-8.9-8.4v-13h1.9v13c0.1,3.6,3.2,6.5,7.1,6.6h1.3c3.8,0,7-2.9,7.1-6.6
						V16.7h1.9v13c-0.1,4.7-4.1,8.4-8.9,8.4H150.7z"/>
				</defs>
				<clipPath id="SVGID_28_">
					<use xlink:href="#SVGID_27_"  style="overflow:visible;"/>
				</clipPath>
				<g class="st14">
					<defs>
						<rect id="SVGID_29_" x="0.5" y="0.5" width="238" height="54"/>
					</defs>
					<clipPath id="SVGID_30_">
						<use xlink:href="#SVGID_29_"  style="overflow:visible;"/>
					</clipPath>
					<rect x="136.8" y="11.7" class="st15" width="29.2" height="31.4"/>
				</g>
			</g>
			<g class="st1">
				<defs>
					<path id="SVGID_31_" d="M26.8,0.5l-5.5,16.1l0,0L0.5,26.9l16.1,5.5l10.3,20.9l5.5-16.1l0,0l20.8-10.3l-16.1-5.5L26.8,0.5z
						 M16.5,30.4L5.2,26.6l0.3-0.1L20.5,19l-3.9,11.5L16.5,30.4z M27.1,5.2l8.1,16.5l-16.5,8.1L27.1,5.2z M26.6,48.5L19,33.2
						L30.5,37L26.6,48.5z M48.3,27.2l-16.7,8.3l-12-4.1l0.3-0.1l16.7-8.3l12,4.1L48.3,27.2z"/>
				</defs>
				<clipPath id="SVGID_32_">
					<use xlink:href="#SVGID_31_"  style="overflow:visible;"/>
				</clipPath>
				<g class="st16">
					<defs>
						<rect id="SVGID_33_" x="0.5" y="0.5" width="238" height="54"/>
					</defs>
					<clipPath id="SVGID_34_">
						<use xlink:href="#SVGID_33_"  style="overflow:visible;"/>
					</clipPath>
					<rect x="-4.5" y="-4.5" class="st17" width="62.7" height="62.7"/>
				</g>
			</g>
		</g>
	</g>
</g>
<g>
</g>
<g>
</g>
<g>
</g>
<g>
</g>
<g>
</g>
<g>
</g>
<g>
</g>
<g>
</g>
<g>
</g>
<g>
</g>
<g>
</g>
<g>
</g>
<g>
</g>
<g>
</g>
<g>
</g>
</svg>
