<?xml version="1.0" encoding="utf-8"?>
<!-- Generator: Adobe Illustrator 21.0.0, SVG Export Plug-In . SVG Version: 6.00 Build 0)  -->
<svg version="1.1" id="图层_1" xmlns="http://www.w3.org/2000/svg" xmlns:xlink="http://www.w3.org/1999/xlink" x="0px" y="0px"
	 viewBox="0 0 238 54" style="enable-background:new 0 0 238 54;" xml:space="preserve">
<style type="text/css">
	.st0{clip-path:url(#SVGID_2_);}
	.st1{fill:#7F04FE;}
	.st2{fill:#7D27FE;}
	.st3{fill:#FEFEFE;}
	.st4{fill:#7D26FE;}
</style>
<g>
	<defs>
		<rect id="SVGID_1_" x="48.8" y="3.3" width="140.2" height="47.4"/>
	</defs>
	<clipPath id="SVGID_2_">
		<use xlink:href="#SVGID_1_"  style="overflow:visible;"/>
	</clipPath>
	<g class="st0">
		<path class="st1" d="M116.6,26.7c0.9,0,1.8,0,2.8,0c1.4,0,2,0.6,2.1,1.9c0.2,2.2,0,4.4-0.9,6.4c-1.2,2.7-3.3,4.3-6.2,4.8
			c-3.6,0.6-7.1,0.1-9.9-2.5c-2.3-2-3.2-4.7-3.4-7.7c-0.3-3.7,0.5-7.2,2.8-10.2c1.5-1.9,3.5-3,5.9-3.3c3.4-0.5,6.6-0.1,9.2,2.3
			c0.5,0.4,1,0.9,1.3,1.5c0.3,0.6,0.8,1.3,0.3,1.9c-0.6,0.8-1.4,1.1-2.4,1.1c-0.9-0.1-1.4-0.7-2-1.2c-2.6-2.5-6.7-2.4-9,0.4
			c-1.6,2-2,4.3-1.9,6.8c0.1,1.7,0.5,3.3,1.5,4.6c1.5,2,3.6,3,6,2.6c2.2-0.4,3.5-1.8,4.2-3.9c0-0.2,0.1-0.3,0.1-0.5
			c0.2-0.8,0-1.2-1-1.1c-0.8,0.1-1.7,0-2.6,0c-1.4-0.1-2-0.6-2-1.8c0-1.3,0.6-2,1.9-2.1C114.5,26.6,115.5,26.7,116.6,26.7
			C116.6,26.7,116.6,26.7,116.6,26.7z"/>
		<path class="st1" d="M178.8,16c2.9-0.1,5.5,0.8,7.4,3c1.4,1.7,2.2,3.6,2.6,5.8c0.5,3.2,0.4,6.4-0.9,9.5c-1.5,3.6-4.3,5.4-8.2,5.7
			c-6,0.4-10.1-3.1-11-9.2c-0.4-2.5-0.3-4.9,0.4-7.3C170.6,18.5,173.7,15.9,178.8,16z"/>
		<path class="st1" d="M133.7,28.3c0-3.1,0-6.3,0-9.4c0-1.8,0.5-2.3,2.3-2.3c3.2,0,6.5,0,9.7,0c1.8,0,2.8,1.6,1.9,3.2
			c-0.4,0.7-1.2,0.7-1.9,0.7c-2.2,0-4.4,0-6.6,0c-0.7,0-0.9,0.1-0.9,0.9c0.1,1.2,0.1,2.4,0,3.6c0,0.8,0.2,0.9,0.9,0.9
			c2,0,3.9,0,5.9,0c1.6,0,2.4,1.2,1.9,2.7c-0.3,0.8-0.9,1-1.7,1c-2.1,0-4.1,0-6.2,0c-0.7,0-0.9,0.2-0.8,0.8c0,2.5,0,5,0,7.5
			c0,1.1-0.4,1.6-1.5,1.8c-0.4,0-0.8,0.1-1.1,0c-1.2-0.1-1.7-0.6-1.7-1.9C133.7,34.6,133.7,31.4,133.7,28.3z"/>
		<path class="st1" d="M160.3,29.6c0,2.7,0,5.3,0,8c0,1.5-0.7,2.1-2.2,2.1c-1.4,0-2.1-0.7-2.1-2.1c0-5.3,0-10.6,0-15.9
			c0-0.8-0.2-1.1-1-1c-1,0.1-2,0-3,0c-1.2,0-1.7-0.6-1.8-2c0-1.3,0.6-2,1.7-2c4.2,0,8.3,0,12.5,0c1.1,0,1.7,0.8,1.7,2
			c-0.1,1.3-0.6,2-1.8,2c-1.1,0-2.2,0-3.2,0c-0.7,0-0.9,0.2-0.9,0.8C160.3,24.1,160.3,26.9,160.3,29.6z"/>
		<circle class="st2" cx="72.5" cy="27" r="23.7"/>
		<path class="st1" d="M125.1,27.9c0-3.1,0-6.3,0-9.4c0-0.8,0.1-1.6,0.9-2c0.9-0.5,1.8-0.4,2.6,0c0.5,0.3,0.7,0.8,0.8,1.3
			c0,0.9,0,1.7,0,2.6c0,5.6,0,11.3,0,16.9c0,1.7-0.7,2.4-2.4,2.3c-1.4-0.1-1.9-0.6-1.9-2.1C125.1,34.4,125.1,31.1,125.1,27.9z"/>
		<path class="st3" d="M65.1,20.4c-0.4-0.6-0.7-1.1-0.9-1.6c-0.5-1.2-0.2-2.7,0.6-3.4c1-0.9,2.7-1.1,3.9-0.3c1.6,1,2.5,2.6,3.2,4.2
			c0.1,0.3,0.1,0.8,0.7,0.8c0.5,0,0.4-0.5,0.6-0.7c0.6-1.3,1.3-2.6,2.4-3.6c0.9-0.9,2-1.3,3.3-1c2.1,0.5,3,2.6,1.9,4.5
			c-0.2,0.4-0.4,0.7-0.7,1.2c1.3,0,2.5,0,3.7,0c1.5,0,2.5,0.8,2.5,2.1c0,1.3-1,2.2-2.5,2.2c-3.1,0-6.3,0-9.4,0
			c-0.6,0-0.8-0.2-0.8-0.8c0-0.8,0-1.5,0-2.3c0.1-1-0.6-0.6-1.1-0.7c-0.5-0.1-0.9,0-0.9,0.7c0.1,0.8,0,1.6,0,2.4
			c0,0.5-0.1,0.7-0.6,0.7c-3.3,0-6.5,0-9.8,0c-1.3,0-2.3-1-2.3-2.2c0-1.2,1-2.1,2.4-2.2C62.5,20.4,63.7,20.4,65.1,20.4z"/>
		<path class="st3" d="M73.5,32.9c0-2,0-4,0-6c0-0.6,0.1-0.9,0.8-0.9c3,0,5.9,0,8.9,0c0.7,0,0.9,0.2,0.8,0.8c0,2.9,0,5.8,0,8.7
			c0,2.5-1.7,4.2-4.2,4.2c-1.9,0-3.7,0-5.6,0c-0.6,0-0.8-0.1-0.8-0.8C73.5,37,73.5,34.9,73.5,32.9z"/>
		<path class="st3" d="M71.6,32.9c0,2,0,4.1,0,6.1c0,0.6-0.2,0.8-0.8,0.8c-1.9,0-3.9,0-5.8,0c-2.2,0-3.9-1.7-3.9-3.9
			c0-3,0-6.1,0-9.1c0-0.6,0.2-0.7,0.8-0.7c3,0,6,0,9,0c0.6,0,0.7,0.2,0.7,0.8C71.5,28.8,71.6,30.9,71.6,32.9z"/>
		<path class="st3" d="M184.7,28.2c0,1.1,0,2.3-0.3,3.4c-0.8,3-2.6,4.5-5.5,4.5c-2.8,0-4.8-1.6-5.6-4.5c-0.6-2.4-0.7-4.9,0-7.3
			c0.6-2.2,1.8-3.9,4.2-4.3c2.1-0.4,4.1-0.1,5.6,1.8c1.1,1.4,1.5,3.1,1.6,4.9C184.8,27.2,184.7,27.7,184.7,28.2z"/>
		<path class="st4" d="M78.3,16.8c0.5,0,0.8,0.6,0.5,1.3c-0.3,0.7-2.5,1.9-3.2,1.8c-0.2,0-0.3-0.1-0.3-0.3c0-0.8,1.7-2.8,2.5-2.9
			C77.9,16.8,78,16.8,78.3,16.8z"/>
		<path class="st4" d="M67,16.8c0.4,0,0.7,0.1,1,0.4c0.7,0.6,1.2,1.4,1.6,2.2c0.1,0.2,0.2,0.6-0.3,0.5c-1.1-0.2-2.2-0.6-2.9-1.6
			c-0.3-0.3-0.4-0.7-0.2-1.1C66.4,16.9,66.6,16.8,67,16.8z"/>
	</g>
</g>
<g>
</g>
<g>
</g>
<g>
</g>
<g>
</g>
<g>
</g>
<g>
</g>
<g>
</g>
<g>
</g>
<g>
</g>
<g>
</g>
<g>
</g>
<g>
</g>
<g>
</g>
<g>
</g>
<g>
</g>
<g>
</g>
</svg>
