<?xml version="1.0" encoding="utf-8"?>
<!-- Generator: Adobe Illustrator 21.0.0, SVG Export Plug-In . SVG Version: 6.00 Build 0)  -->
<svg version="1.1" id="图层_1" xmlns="http://www.w3.org/2000/svg" xmlns:xlink="http://www.w3.org/1999/xlink" x="0px" y="0px"
	 viewBox="0 0 90 90" style="enable-background:new 0 0 90 90;" xml:space="preserve">
<g>
	<path d="M45,81C25.1,81,9,64.9,9,45S25.1,9,45,9s36,16.1,36,36S64.9,81,45,81z M45,13c-17.6,0-32,14.4-32,32s14.4,32,32,32
		s32-14.4,32-32S62.6,13,45,13z"/>
</g>
<path d="M60.9,56h-1.5L48.3,26.1c-1.1-3-5.4-3-6.5,0L30.6,56h-1.5c-1,0-1.9,0.7-2.1,1.7C26.8,59,27.8,60,29,60h6.9
	c1,0,1.9-0.7,2.1-1.7c0.2-1.3-0.8-2.3-2-2.3h-1.1l2.2-6h15.8l2.2,6h-1c-1,0-1.9,0.7-2.1,1.7C51.8,59,52.8,60,54,60h4l0,0l0,0h3
	c1.2,0,2.2-1.1,2-2.3C62.8,56.7,61.9,56,60.9,56z M39.1,44.7l5-13.4c0.3-0.9,1.6-0.9,1.9,0l5,13.4c0.2,0.6-0.2,1.3-0.9,1.3H40
	C39.3,46,38.8,45.3,39.1,44.7z"/>
</svg>
