<?xml version="1.0" encoding="utf-8"?>
<!-- Generator: Adobe Illustrator 21.0.0, SVG Export Plug-In . SVG Version: 6.00 Build 0)  -->
<svg version="1.1" id="图层_1" xmlns="http://www.w3.org/2000/svg" xmlns:xlink="http://www.w3.org/1999/xlink" x="0px" y="0px"
	 viewBox="0 0 90 90" style="enable-background:new 0 0 90 90;" xml:space="preserve">
<g>
	<path d="M17.9,36.8h-3.6C10.3,36.8,7,40,7,44v3.6c0,4,3.3,7.3,7.3,7.3h3.6c4,0,7.3-3.3,7.3-7.3V44C25.1,40,21.9,36.8,17.9,36.8z
		 M21.5,47.6c0,2-1.6,3.6-3.6,3.6h-3.6c-2,0-3.6-1.6-3.6-3.6V44c0-2,1.6-3.6,3.6-3.6h3.6c2,0,3.6,1.6,3.6,3.6V47.6z"/>
	<path d="M68.7,13.2h-3.6c-4,0-7.3,3.3-7.3,7.3v3.6c0,4,3.3,7.3,7.3,7.3h3.6c4,0,7.3-3.3,7.3-7.3v-3.6C76,16.4,72.7,13.2,68.7,13.2z
		 M72.3,24.1c0,2-1.6,3.6-3.6,3.6h-3.6c-2,0-3.6-1.6-3.6-3.6v-3.6c0-2,1.6-3.6,3.6-3.6h3.6c2,0,3.6,1.6,3.6,3.6V24.1z"/>
	<path d="M68.7,60.4h-3.6c-4,0-7.3,3.3-7.3,7.3v3.6c0,4,3.3,7.3,7.3,7.3h3.6c4,0,7.3-3.3,7.3-7.3v-3.6C76,63.6,72.7,60.4,68.7,60.4z
		 M72.3,71.2c0,2-1.6,3.6-3.6,3.6h-3.6c-2,0-3.6-1.6-3.6-3.6v-3.6c0-2,1.6-3.6,3.6-3.6h3.6c2,0,3.6,1.6,3.6,3.6V71.2z"/>
	<path d="M68.7,36.8h-3.6c-4,0-7.3,3.3-7.3,7.3v3.6c0,4,3.3,7.3,7.3,7.3h3.6c4,0,7.3-3.3,7.3-7.3V44C76,40,72.7,36.8,68.7,36.8z
		 M72.3,47.6c0,2-1.6,3.6-3.6,3.6h-3.6c-2,0-3.6-1.6-3.6-3.6V44c0-2,1.6-3.6,3.6-3.6h3.6c2,0,3.6,1.6,3.6,3.6V47.6z"/>
	<path d="M46.6,29.9c0.4,0.4,0.8,0.5,1.3,0.5s0.9-0.2,1.3-0.5l6.4-6.4c0.7-0.7,0.7-1.8,0-2.5l-6.4-6.4c-0.7-0.7-1.8-0.7-2.5,0
		s-0.7,1.8,0,2.5l3.3,3.3H36.9c-1,0-1.8,0.8-1.8,1.8V44h-6.4c-1,0-1.8,0.8-1.8,1.8s0.8,1.8,1.8,1.8h6.4v21.8c0,1,0.8,1.8,1.8,1.8
		h12.9l-3.3,3.3c-0.7,0.7-0.7,1.8,0,2.5c0.4,0.4,0.8,0.5,1.3,0.5s0.9-0.2,1.3-0.5l6.4-6.4c0.7-0.7,0.7-1.8,0-2.5l-6.4-6.4
		c-0.7-0.7-1.8-0.7-2.5,0s-0.7,1.8,0,2.5l3.3,3.3H38.8v-20h11.1l-3.3,3.3c-0.7,0.7-0.7,1.8,0,2.5c0.4,0.4,0.8,0.5,1.3,0.5
		s0.9-0.2,1.3-0.5l6.4-6.4c0.7-0.7,0.7-1.8,0-2.5L49.2,38c-0.7-0.7-1.8-0.7-2.5,0s-0.7,1.8,0,2.5l3.3,3.3H38.8v-20h11.1l-3.3,3.3
		C45.8,28,45.8,29.1,46.6,29.9z"/>
</g>
</svg>
